<?xml version="1.0" encoding="utf-8"?>
<!-- Generator: Adobe Illustrator 23.0.2, SVG Export Plug-In . SVG Version: 6.00 Build 0)  -->
<svg version="1.1" id="Layer_1" xmlns="http://www.w3.org/2000/svg" xmlns:xlink="http://www.w3.org/1999/xlink" x="0px" y="0px"
	 viewBox="0 0 78 69" style="enable-background:new 0 0 78 69;" xml:space="preserve">
<style type="text/css">
	.st0{fill:#04CBA6;}
	.st1{fill:none;}
	.st2{fill:#FFFFFF;}
</style>
<g>
	<rect x="0.02" y="31.36" class="st0" width="77.96" height="20.07"/>
	<g>
		<path class="st0" d="M53.34,26.83H34.41v-5.32c0-2.76,0.47-4.59,1.42-5.5c0.95-0.9,3.2-1.69,6.76-2.35
			c2.95-0.55,4.68-1.05,5.24-1.5c0.54-0.46,0.82-1.62,0.82-3.51c0-1.82-0.27-2.97-0.82-3.45c-0.54-0.49-1.84-0.73-3.89-0.73
			c-2.1,0-3.43,0.25-3.97,0.73c-0.55,0.5-0.83,1.69-0.83,3.6v1.1h-4.66V8.82c0-3.27,0.65-5.49,1.94-6.62c1.3-1.13,3.8-1.7,7.54-1.7
			c3.65,0,6.11,0.58,7.42,1.72c1.3,1.14,1.96,3.32,1.96,6.54c0,3.03-0.49,5.07-1.48,6.09c-0.99,1.02-3.27,1.89-6.85,2.57
			c-2.95,0.56-4.65,1.04-5.13,1.43c-0.48,0.39-0.72,1.5-0.72,3.34v0.71h14.18V26.83z"/>
		<path class="st0" d="M75.08,17.19V0.5h-7.34L56.81,15.45v5.56h13.51v5.61h4.76v-5.61h2.87v-3.83L75.08,17.19z M70.32,17.18H60.7
			l9.48-12.93h0.14V17.18z"/>
		<g>
			<path class="st0" d="M14.7,0.5C6.61,0.5,0.05,5.92,0.05,12.61c0,4,2.34,7.55,5.95,9.75c-0.35,1.36-1.17,3.06-3.08,4.24
				c0,0,3.6,1.02,6.66-2.64c1.59,0.49,3.32,0.76,5.12,0.76c8.09,0,14.65-5.42,14.65-12.11S22.79,0.5,14.7,0.5z"/>
			<g>
				<path class="st2" d="M20.45,13.76c-0.88-0.91-1.92-1.59-3.06-2c1.22-0.88,2.02-2.34,2.02-4c0-2.68-2.09-4.85-4.65-4.85
					S10.1,5.08,10.1,7.76c0,1.66,0.8,3.12,2.02,4c-1.14,0.41-2.18,1.09-3.06,2c-1.52,1.59-2.36,3.69-2.36,5.94h1.26
					c0-3.91,3.05-7.08,6.79-7.08c3.74,0,6.79,3.18,6.79,7.08h1.26C22.8,17.45,21.97,15.34,20.45,13.76z"/>
				<ellipse class="st2" cx="14.76" cy="7.76" rx="3.39" ry="3.54"/>
				<path class="st2" d="M6.71,19.69c0-4.32,3.61-7.83,8.06-7.83s8.06,3.5,8.06,7.83"/>
			</g>
		</g>
	</g>
	<g>
		<path class="st0" d="M1.49,66.56c0.08-0.1,0.16-0.22,0.24-0.32c0.16-0.22,0.34-0.35,0.57-0.15c0.11,0.1,1.3,1.28,2.74,1.28
			c1.31,0,2.17-0.86,2.17-1.86c0-1.17-0.97-1.86-2.84-2.67c-1.78-0.81-2.85-1.57-2.85-3.5c0-1.15,0.88-3.01,3.45-3.01
			c1.59,0,2.77,0.86,2.77,0.86c0.1,0.05,0.29,0.25,0.1,0.58c-0.07,0.1-0.13,0.22-0.19,0.32c-0.15,0.24-0.31,0.3-0.57,0.15
			c-0.11-0.07-1.14-0.78-2.12-0.78c-1.72,0-2.24,1.15-2.24,1.86c0,1.13,0.83,1.79,2.19,2.38c2.19,0.93,3.6,1.79,3.6,3.75
			c0,1.76-1.6,3.04-3.5,3.04c-1.91,0-3.21-1.17-3.42-1.37C1.46,67.01,1.3,66.88,1.49,66.56z"/>
		<path class="st0" d="M11.52,56.82c0-0.17,0.15-0.32,0.31-0.32h0.62c0.18,0,0.31,0.15,0.31,0.32v7.05c0,1.93,1.15,3.43,3.05,3.43
			c1.91,0,3.08-1.47,3.08-3.4v-7.09c0-0.17,0.13-0.32,0.31-0.32h0.62c0.16,0,0.31,0.15,0.31,0.32v7.15c0,2.57-1.75,4.53-4.31,4.53
			c-2.54,0-4.28-1.96-4.28-4.53V56.82z"/>
		<path class="st0" d="M24.08,56.82c0-0.17,0.13-0.32,0.31-0.32h3.58c1.99,0,3.63,1.69,3.63,3.74c0,2.1-1.64,3.8-3.61,3.8h-2.67
			v3.97c0,0.17-0.15,0.32-0.31,0.32h-0.62c-0.18,0-0.31-0.15-0.31-0.32V56.82z M27.88,62.78c1.33,0,2.46-1.13,2.46-2.59
			c0-1.37-1.13-2.42-2.46-2.42h-2.58v5.01H27.88z"/>
		<path class="st0" d="M34.54,56.82c0-0.17,0.13-0.32,0.31-0.32h3.58c1.99,0,3.63,1.69,3.63,3.74c0,2.1-1.64,3.8-3.61,3.8h-2.67
			v3.97c0,0.17-0.15,0.32-0.31,0.32h-0.62c-0.18,0-0.31-0.15-0.31-0.32V56.82z M38.35,62.78c1.33,0,2.46-1.13,2.46-2.59
			c0-1.37-1.13-2.42-2.46-2.42h-2.58v5.01H38.35z"/>
		<path class="st0" d="M50,56.32c3.24,0,5.83,2.72,5.83,6.1c0,3.38-2.59,6.07-5.83,6.07s-5.82-2.69-5.82-6.07
			C44.18,59.05,46.76,56.32,50,56.32z M50,67.32c2.58,0,4.7-2.2,4.7-4.89c0-2.69-2.12-4.92-4.7-4.92c-2.58,0-4.68,2.23-4.68,4.92
			C45.31,65.12,47.42,67.32,50,67.32z"/>
		<path class="st0" d="M59.12,56.82c0-0.17,0.13-0.32,0.31-0.32h4.2c1.94,0,3.53,1.59,3.53,3.6c0,1.56-0.99,2.86-2.4,3.45l2.22,4.29
			c0.11,0.22,0,0.49-0.27,0.49h-0.83c-0.15,0-0.23-0.08-0.26-0.15l-2.15-4.48h-3.1v4.31c0,0.17-0.15,0.32-0.31,0.32h-0.63
			c-0.18,0-0.31-0.15-0.31-0.32V56.82z M63.54,62.58c1.25,0,2.33-1.08,2.33-2.47c0-1.28-1.09-2.38-2.33-2.38H60.4v4.85H63.54z"/>
		<path class="st0" d="M72.24,57.63h-2.82c-0.18,0-0.31-0.15-0.31-0.32v-0.49c0-0.17,0.13-0.32,0.31-0.32h6.87
			c0.18,0,0.31,0.15,0.31,0.32v0.49c0,0.17-0.13,0.32-0.31,0.32h-2.82v10.38c0,0.17-0.15,0.32-0.31,0.32h-0.62
			c-0.16,0-0.31-0.15-0.31-0.32V57.63z"/>
	</g>
	<g>
		<path class="st2" d="M6.6,37.96c0-0.12,0.1-0.22,0.21-0.22h1.32c0.12,0,0.21,0.1,0.21,0.22v2.93h3.19v-2.93
			c0-0.12,0.09-0.22,0.21-0.22h1.32c0.11,0,0.21,0.1,0.21,0.22v7.69c0,0.12-0.1,0.22-0.21,0.22h-1.32c-0.12,0-0.21-0.1-0.21-0.22
			V42.6H8.35v3.06c0,0.12-0.09,0.22-0.21,0.22H6.81c-0.11,0-0.21-0.1-0.21-0.22V37.96z"/>
		<path class="st2" d="M29.77,37.62c2.23,0,4.01,1.87,4.01,4.2c0,2.32-1.78,4.17-4.01,4.17s-4-1.85-4-4.17
			C25.77,39.49,27.54,37.62,29.77,37.62z M29.77,44.13c1.23,0,2.23-1.05,2.23-2.31c0-1.28-1-2.34-2.23-2.34
			c-1.21,0-2.22,1.06-2.22,2.34C27.55,43.09,28.55,44.13,29.77,44.13z"/>
		<path class="st2" d="M46.15,37.96c0-0.12,0.1-0.22,0.21-0.22h1.37c0.12,0,0.21,0.1,0.21,0.22v4.71c0,0.81,0.58,1.46,1.37,1.46
			c0.8,0,1.39-0.65,1.39-1.46v-4.71c0-0.12,0.09-0.22,0.21-0.22h1.37c0.11,0,0.21,0.1,0.21,0.22v4.8c0,1.77-1.43,3.23-3.19,3.23
			c-1.75,0-3.16-1.46-3.16-3.23V37.96z"/>
		<path class="st2" d="M65.43,37.96c0-0.12,0.09-0.22,0.21-0.22h3.33c1.34,0,2.43,1.13,2.43,2.51c0,1.07-0.68,1.93-1.65,2.34
			l1.53,2.95c0.08,0.15,0,0.34-0.19,0.34h-1.48c-0.09,0-0.16-0.06-0.18-0.1l-1.48-3.08h-0.77v2.96c0,0.12-0.1,0.22-0.21,0.22h-1.32
			c-0.12,0-0.21-0.1-0.21-0.22V37.96z M68.83,41.22c0.46,0,0.85-0.44,0.85-0.93c0-0.49-0.39-0.88-0.85-0.88h-1.65v1.81H68.83z"/>
	</g>
</g>
</svg>
