<?xml version="1.0" encoding="utf-8"?>
<!-- Generator: Adobe Illustrator 23.0.2, SVG Export Plug-In . SVG Version: 6.00 Build 0)  -->
<svg version="1.1" id="Layer_1" xmlns="http://www.w3.org/2000/svg" xmlns:xlink="http://www.w3.org/1999/xlink" x="0px" y="0px"
	 viewBox="0 0 78 69" style="enable-background:new 0 0 78 69;" xml:space="preserve">
<style type="text/css">
	.st0{fill:#04CBA6;}
	.st1{fill:none;}
	.st2{fill:#FFFFFF;}
</style>
<g>
	<g>
		<path class="st0" d="M18.04,14.58l-0.08-0.83c-0.02-0.19,0.14-0.3,0.27-0.29c0.07-0.01,1.23,0,1.84-0.43
			c0.49-0.35,0.63-0.93,0.34-1.34c-0.34-0.48-0.99-0.52-2.01-0.28c-1.14,0.28-2.43,0.34-3.23-0.77c-0.6-0.84-0.67-2.25,0.83-3.33
			c0.96-0.69,2.05-0.72,2.34-0.72c0.13-0.01,0.28,0.13,0.28,0.27l0.02,0.79c0,0.17-0.08,0.34-0.25,0.35
			c-0.11,0.01-1.16,0.05-1.68,0.42c-0.54,0.38-0.57,0.95-0.36,1.25c0.32,0.44,0.88,0.49,1.87,0.26c1.18-0.29,2.62-0.49,3.49,0.72
			c0.69,0.97,0.49,2.47-0.83,3.42c-1.19,0.85-2.28,0.79-2.6,0.75C18.15,14.8,18.07,14.79,18.04,14.58z"/>
		<path class="st0" d="M23.14,3.56c-0.04-0.11,0.01-0.24,0.13-0.28l2.55-0.95c1.34-0.5,2.84,0.18,3.32,1.5
			c0.5,1.35-0.19,2.85-1.51,3.34l-1.36,0.5l0.95,2.55c0.04,0.11-0.02,0.24-0.13,0.28l-1,0.37c-0.12,0.04-0.24-0.02-0.28-0.13
			L23.14,3.56z M27.04,5.87c0.61-0.23,0.94-0.9,0.7-1.54c-0.22-0.6-0.9-0.86-1.51-0.64l-1.26,0.47l0.81,2.18L27.04,5.87z"/>
		<path class="st0" d="M33.5,0.61c-0.01-0.12,0.08-0.23,0.2-0.24L38.4,0c0.13-0.01,0.23,0.09,0.24,0.2l0.08,0.95
			c0.01,0.12-0.07,0.23-0.2,0.24l-3.42,0.27l0.15,1.89l2.85-0.23c0.12-0.01,0.23,0.09,0.24,0.2l0.08,0.96
			c0.01,0.13-0.09,0.23-0.2,0.24l-2.85,0.23l0.16,2.02l3.42-0.27c0.13-0.01,0.23,0.09,0.24,0.2l0.08,0.95
			c0.01,0.12-0.07,0.23-0.2,0.24l-4.7,0.37c-0.13,0.01-0.23-0.09-0.24-0.2L33.5,0.61z"/>
		<path class="st0" d="M44.2,0.57c0.02-0.11,0.13-0.2,0.26-0.17l4.63,0.9c0.12,0.02,0.2,0.14,0.17,0.26l-0.18,0.93
			c-0.02,0.11-0.13,0.2-0.26,0.17l-3.36-0.66l-0.36,1.86l2.81,0.55c0.11,0.02,0.2,0.14,0.17,0.26l-0.18,0.94
			c-0.02,0.12-0.14,0.2-0.26,0.17l-2.81-0.55l-0.39,1.99l3.36,0.66c0.13,0.02,0.2,0.14,0.17,0.26l-0.18,0.93
			c-0.02,0.11-0.13,0.2-0.26,0.17l-4.63-0.9c-0.13-0.02-0.2-0.14-0.17-0.26L44.2,0.57z"/>
		<path class="st0" d="M54.72,3.44c0.06-0.1,0.19-0.15,0.29-0.09l2.42,1.3c1.97,1.06,2.72,3.53,1.66,5.49
			c-1.06,1.98-3.54,2.71-5.5,1.65l-2.42-1.3c-0.1-0.06-0.13-0.19-0.08-0.29L54.72,3.44z M54.13,10.47c1.33,0.71,2.83,0.24,3.55-1.1
			c0.71-1.33,0.28-2.85-1.04-3.56l-1.16-0.63l-2.51,4.66L54.13,10.47z"/>
	</g>
	<path class="st0" d="M27.94,12.19C12.85,18.3,5.57,35.48,11.68,50.57c6.11,15.09,23.29,22.38,38.38,16.27s22.38-23.29,16.27-38.38
		C60.22,13.37,43.04,6.08,27.94,12.19z"/>
	<circle class="st2" cx="39" cy="39.52" r="24.86"/>
	<g>
		<path class="st0" d="M21.7,36.34l-1.9,0.41c-0.19,0.04-0.41-0.09-0.43-0.28l-0.13-1.06c-0.02-0.17,0.02-0.3,0.11-0.39l3.1-2.61
			h1.51c0.22,0,0.39,0.19,0.39,0.41v13.84c0,0.22-0.17,0.41-0.39,0.41h-1.85c-0.24,0-0.41-0.19-0.41-0.41V36.34z"/>
		<path class="st0" d="M39.75,31.77c1.94,0,3.79,0.75,5.26,2c0.17,0.17,0.19,0.43,0.02,0.6l-1.34,1.4c-0.17,0.17-0.37,0.17-0.56,0
			c-0.93-0.82-2.07-1.25-3.25-1.25c-2.69,0-4.83,2.31-4.83,5c0,2.67,2.13,4.94,4.85,4.94c1.21,0,2.13-0.37,2.57-0.54v-1.83h-1.72
			c-0.24,0-0.41-0.17-0.41-0.39V40c0-0.24,0.17-0.41,0.41-0.41h4.14c0.22,0,0.39,0.19,0.39,0.41v5.52c0,0.17-0.09,0.28-0.17,0.34
			c0,0-2.22,1.4-5.35,1.4c-4.29,0-7.74-3.41-7.74-7.72S35.46,31.77,39.75,31.77z"/>
		<path class="st0" d="M48.44,32.39c0-0.22,0.17-0.41,0.41-0.41h4.94c2.56,0,4.55,1.72,4.55,3.99c0,1.66-1.36,2.95-2.37,3.43
			c1.14,0.37,2.8,1.53,2.8,3.51c0,2.41-2.07,4.16-4.7,4.16h-5.22c-0.24,0-0.41-0.19-0.41-0.41V32.39z M53.52,38.32
			c1.1,0,1.85-0.86,1.85-1.94s-0.75-1.83-1.85-1.83h-2.31v3.77H53.52z M53.83,44.53c1.08,0,1.94-0.84,1.94-1.96
			c0-1.08-1.08-1.88-2.2-1.88h-2.35v3.84H53.83z"/>
	</g>
</g>
</svg>
