<?xml version="1.0" encoding="utf-8"?>
<!-- Generator: Adobe Illustrator 23.0.2, SVG Export Plug-In . SVG Version: 6.00 Build 0)  -->
<svg version="1.1" id="Layer_1" xmlns="http://www.w3.org/2000/svg" xmlns:xlink="http://www.w3.org/1999/xlink" x="0px" y="0px"
	 viewBox="0 0 78 69" style="enable-background:new 0 0 78 69;" xml:space="preserve">
<style type="text/css">
	.st0{fill:#04CBA6;}
	.st1{fill:none;}
	.st2{fill:#FFFFFF;}
</style>
<g>
	<g>
		<path class="st0" d="M2.59,26.13c-0.11-0.04-0.17-0.17-0.12-0.29l0.41-0.98c0.04-0.11,0.18-0.16,0.29-0.12l6,2.5l1.14-2.73
			c0.05-0.12,0.18-0.16,0.29-0.12l0.88,0.36c0.11,0.04,0.17,0.17,0.12,0.29l-1.63,3.92c-0.05,0.12-0.18,0.16-0.29,0.12L2.59,26.13z"
			/>
		<path class="st0" d="M8.98,14.33c1.47-1.79,4.09-2.03,5.88-0.56s2.03,4.08,0.56,5.87c-1.47,1.79-4.07,2.04-5.86,0.56
			C7.77,18.73,7.5,16.12,8.98,14.33z M14.25,18.68c0.93-1.13,0.77-2.82-0.35-3.74c-1.13-0.93-2.83-0.77-3.76,0.35
			c-0.93,1.13-0.75,2.82,0.38,3.75C11.64,19.97,13.32,19.81,14.25,18.68z"/>
		<path class="st0" d="M19.25,5.49c0.99-0.62,1.91-0.75,2.95-0.56c0.14,0.02,0.21,0.14,0.18,0.27l-0.22,0.99
			c-0.02,0.12-0.12,0.18-0.25,0.15c-0.64-0.11-1.33,0.02-1.88,0.36c-1.26,0.78-1.54,2.42-0.77,3.66c0.76,1.23,2.36,1.69,3.62,0.9
			c0.59-0.37,0.95-0.91,1.16-1.5c0.04-0.12,0.15-0.18,0.25-0.15l1,0.25c0.12,0.02,0.18,0.16,0.16,0.27c-0.27,1.07-0.92,1.9-1.8,2.44
			c-1.97,1.22-4.53,0.64-5.75-1.33S17.28,6.71,19.25,5.49z"/>
		<path class="st0" d="M27.9,9.79l1.54-8.45c0.02-0.08,0.06-0.15,0.16-0.17l0.11-0.03c0.11-0.03,0.17,0.02,0.22,0.07l5.41,6.66
			c0.1,0.13,0.05,0.3-0.12,0.34l-0.98,0.25c-0.17,0.04-0.26,0-0.38-0.14l-0.86-1.07l-3.35,0.87l-0.24,1.35
			c-0.02,0.12-0.09,0.26-0.27,0.31l-0.98,0.25C28,10.07,27.87,9.95,27.9,9.79z M32.13,6.14l-1.76-2.18l-0.03,0.01l-0.46,2.75
			L32.13,6.14z"/>
		<path class="st0" d="M39.02,1.4l-1.77-0.01c-0.13,0-0.22-0.11-0.22-0.22l0.01-0.95c0-0.12,0.09-0.22,0.22-0.22l5.06,0.03
			c0.13,0,0.22,0.11,0.22,0.22l-0.01,0.95c0,0.12-0.09,0.22-0.22,0.22l-1.77-0.01l-0.04,6.5c0,0.12-0.11,0.22-0.22,0.22L39.2,8.12
			c-0.12,0-0.22-0.11-0.22-0.22L39.02,1.4z"/>
		<path class="st0" d="M47.23,0.99c0.02-0.11,0.15-0.19,0.26-0.17l1.05,0.23c0.11,0.03,0.19,0.15,0.17,0.26L47.07,8.8
			C47.05,8.92,46.93,9,46.81,8.97l-1.05-0.23c-0.11-0.02-0.19-0.15-0.17-0.26L47.23,0.99z"/>
		<path class="st0" d="M57.81,4.36c2.05,1.07,2.84,3.58,1.77,5.64c-1.07,2.06-3.57,2.83-5.62,1.76c-2.05-1.07-2.84-3.56-1.77-5.61
			C53.26,4.09,55.75,3.29,57.81,4.36z M54.65,10.42c1.29,0.68,2.92,0.17,3.59-1.12c0.67-1.29,0.17-2.93-1.13-3.61
			c-1.3-0.67-2.92-0.15-3.59,1.15C52.85,8.14,53.35,9.75,54.65,10.42z"/>
		<path class="st0" d="M66.05,10.17c0.09-0.08,0.22-0.07,0.3,0.02l0.2,0.21l-0.47,7.02l0.01,0.01l3.51-3.26
			c0.09-0.08,0.22-0.08,0.31,0.01l0.73,0.78c0.08,0.09,0.07,0.23-0.01,0.31l-5.72,5.31c-0.09,0.08-0.22,0.07-0.3-0.02l-0.19-0.2
			l0.6-7.17l-0.01-0.01l-3.65,3.39c-0.09,0.08-0.22,0.08-0.31-0.01l-0.72-0.77c-0.08-0.08-0.07-0.23,0.01-0.31L66.05,10.17z"/>
		<path class="st0" d="M67.67,23l0.83,0.06c0.19,0.01,0.27,0.19,0.24,0.32c0,0.07-0.21,1.21,0.12,1.89
			c0.26,0.54,0.81,0.78,1.26,0.56c0.53-0.26,0.68-0.88,0.61-1.93c-0.08-1.17,0.07-2.46,1.3-3.05c0.93-0.45,2.34-0.28,3.14,1.37
			c0.52,1.06,0.37,2.14,0.31,2.42c-0.01,0.13-0.17,0.25-0.31,0.23l-0.79-0.11c-0.17-0.02-0.33-0.14-0.3-0.3
			c0.01-0.11,0.15-1.15-0.13-1.73c-0.29-0.59-0.84-0.73-1.18-0.56c-0.49,0.24-0.64,0.79-0.57,1.8c0.08,1.21,0.05,2.67-1.3,3.32
			c-1.07,0.52-2.51,0.08-3.23-1.4c-0.64-1.31-0.4-2.38-0.3-2.69C67.43,23.07,67.46,22.99,67.67,23z"/>
	</g>
	<path class="st0" d="M28.49,12.14C13.39,18.25,6.1,35.45,12.21,50.55c6.11,15.1,23.31,22.39,38.41,16.28S73.02,43.53,66.9,28.42
		C60.79,13.32,43.6,6.03,28.49,12.14z"/>
	<circle class="st2" cx="39.56" cy="39.49" r="24.88"/>
	<g>
		<path class="st0" d="M21.78,43.68v-1.97l8.55-10.4c0.07-0.07,0.19-0.14,0.36-0.14h1.28c0.24,0,0.45,0.19,0.45,0.45v10.12h1.9
			c0.26,0,0.45,0.19,0.45,0.43v1.47c0,0.24-0.19,0.45-0.45,0.45h-1.9l0.02,3.04c0,0.24-0.21,0.45-0.45,0.45h-1.97
			c-0.24,0-0.45-0.21-0.45-0.45v-2.99h-7.34C21.97,44.13,21.78,43.92,21.78,43.68z M29.67,41.66v-5.7l-4.75,5.7H29.67z"/>
		<path class="st0" d="M37.03,39.5c0-5.2,2.19-8.31,5.99-8.31c3.8,0,5.99,3.11,5.99,8.31s-2.19,8.31-5.99,8.31
			C39.22,47.81,37.03,44.7,37.03,39.5z M45.89,39.5c0-3.52-1.05-5.51-2.87-5.51c-1.83,0-2.87,2-2.87,5.51
			c0,3.54,1.05,5.51,2.87,5.51C44.85,45.01,45.89,43.04,45.89,39.5z"/>
		<path class="st0" d="M53.69,35.52h-2.08c-0.14,0-0.26-0.12-0.26-0.26v-0.78c0-0.14,0.12-0.26,0.26-0.26h2.08v-2.09
			c0-0.14,0.13-0.25,0.26-0.25h0.78c0.14,0,0.26,0.11,0.26,0.25v2.09h2.09c0.14,0,0.25,0.12,0.25,0.26v0.78
			c0,0.14-0.11,0.26-0.25,0.26h-2.09v2.06c0,0.14-0.12,0.25-0.26,0.25h-0.78c-0.14,0-0.26-0.11-0.26-0.25V35.52z"/>
	</g>
</g>
</svg>
