<?xml version="1.0" encoding="utf-8"?>
<!-- Generator: Adobe Illustrator 23.0.2, SVG Export Plug-In . SVG Version: 6.00 Build 0)  -->
<svg version="1.1" id="Layer_1" xmlns="http://www.w3.org/2000/svg" xmlns:xlink="http://www.w3.org/1999/xlink" x="0px" y="0px"
	 viewBox="0 0 78 69" style="enable-background:new 0 0 78 69;" xml:space="preserve">
<style type="text/css">
	.st0{fill:#04CBA6;}
	.st1{fill:none;}
	.st2{fill:#FFFFFF;}
</style>
<g>
	<g>
		<path class="st0" d="M4.17,0.15C4.19,0.07,4.27,0,4.34,0H4.5c0.06,0,0.15,0.05,0.17,0.11l2.05,5.01h0.04L8.8,0.11
			C8.82,0.05,8.89,0,8.96,0h0.16C9.2,0,9.28,0.07,9.3,0.15l1.21,6.59c0.03,0.14-0.04,0.23-0.18,0.23H9.69
			C9.6,6.96,9.52,6.9,9.5,6.83L8.78,2.44c-0.01,0-0.03,0-0.03,0L6.98,6.95C6.96,7.01,6.9,7.06,6.81,7.06H6.64
			c-0.08,0-0.15-0.05-0.17-0.11L4.7,2.44c-0.01,0-0.03,0-0.04,0L3.95,6.83C3.94,6.9,3.85,6.96,3.77,6.96H3.14
			C3,6.96,2.93,6.88,2.95,6.74L4.17,0.15z"/>
		<path class="st0" d="M15.95,0c1.96,0,3.53,1.58,3.53,3.54c0,1.96-1.57,3.52-3.53,3.52c-1.96,0-3.52-1.56-3.52-3.52
			C12.43,1.58,13.99,0,15.95,0z M15.95,6.08c1.4,0,2.55-1.14,2.55-2.54c0-1.39-1.15-2.56-2.55-2.56c-1.39,0-2.54,1.17-2.54,2.56
			C13.41,4.94,14.55,6.08,15.95,6.08z"/>
		<path class="st0" d="M21.86,0.18c0-0.1,0.09-0.18,0.19-0.18h0.24l4.26,4.92h0.01V0.28c0-0.1,0.08-0.19,0.19-0.19h0.63
			c0.1,0,0.19,0.09,0.19,0.19v6.6c0,0.1-0.09,0.18-0.19,0.18h-0.25L22.86,2h-0.01v4.78c0,0.1-0.08,0.19-0.19,0.19h-0.62
			c-0.1,0-0.19-0.09-0.19-0.19V0.18z"/>
		<path class="st0" d="M30.45,0.28c0-0.1,0.08-0.19,0.19-0.19h3.92c0.11,0,0.19,0.09,0.19,0.19v0.55c0,0.1-0.08,0.19-0.19,0.19h-3.1
			v2h2.62c0.1,0,0.19,0.09,0.19,0.19v0.55c0,0.11-0.09,0.19-0.19,0.19h-2.62v2.11h3.1c0.11,0,0.19,0.09,0.19,0.19v0.54
			c0,0.1-0.08,0.19-0.19,0.19h-3.92c-0.11,0-0.19-0.09-0.19-0.19V0.28z"/>
		<path class="st0" d="M38.55,3.66l-2.3-3.28c-0.08-0.13,0-0.28,0.16-0.28h0.73c0.08,0,0.13,0.05,0.16,0.09l1.77,2.5l1.77-2.5
			C40.87,0.15,40.93,0.1,41,0.1h0.74c0.16,0,0.24,0.16,0.16,0.28l-2.32,3.27v3.13c0,0.1-0.09,0.19-0.19,0.19h-0.65
			c-0.11,0-0.19-0.09-0.19-0.19V3.66z"/>
		<path class="st0" d="M46.95,0.28c0-0.1,0.08-0.19,0.19-0.19h2.2c1.19,0,2.04,0.78,2.04,1.81c0,0.76-0.56,1.29-1.02,1.56
			c0.52,0.22,1.23,0.7,1.23,1.6c0,1.1-0.9,1.89-2.14,1.89h-2.3c-0.11,0-0.19-0.09-0.19-0.19V0.28z M49.44,6.06
			c0.6,0,1.06-0.46,1.06-1.07c0-0.6-0.57-1.03-1.21-1.03h-1.34v2.1H49.44z M49.28,3.08c0.63,0,1.01-0.46,1.01-1.05
			c0-0.6-0.38-1.01-1.01-1.01h-1.32v2.06H49.28z"/>
		<path class="st0" d="M53.11,6.71l3.01-6.6C56.16,0.05,56.24,0,56.29,0h0.1c0.05,0,0.14,0.05,0.17,0.11l2.99,6.6
			c0.06,0.13-0.02,0.25-0.17,0.25h-0.62c-0.12,0-0.19-0.06-0.23-0.15l-0.61-1.34h-3.21c-0.2,0.45-0.4,0.89-0.6,1.34
			c-0.03,0.07-0.11,0.15-0.23,0.15h-0.62C53.13,6.96,53.06,6.84,53.11,6.71z M57.56,4.63l-1.21-2.69H56.3l-1.2,2.69H57.56z"/>
		<path class="st0" d="M64.51,0c0.99,0,1.71,0.33,2.37,0.91c0.09,0.08,0.09,0.2,0.01,0.27l-0.43,0.44c-0.07,0.09-0.16,0.09-0.24,0
			c-0.46-0.4-1.09-0.66-1.7-0.66c-1.4,0-2.46,1.18-2.46,2.55s1.07,2.54,2.47,2.54c0.72,0,1.22-0.28,1.69-0.65
			c0.09-0.07,0.18-0.06,0.23-0.01l0.45,0.44c0.08,0.07,0.06,0.2-0.01,0.26c-0.67,0.65-1.51,0.95-2.38,0.95
			c-1.96,0-3.54-1.56-3.54-3.52C60.97,1.58,62.55,0,64.51,0z"/>
		<path class="st0" d="M69.28,0.33c0-0.13,0.1-0.24,0.24-0.24h0.57c0.13,0,0.24,0.11,0.24,0.24v2.72l2.77-2.85
			c0.04-0.05,0.11-0.1,0.19-0.1h0.74c0.18,0,0.27,0.21,0.14,0.35l-2.83,2.88l3,3.31c0.08,0.1,0.03,0.32-0.18,0.32h-0.78
			c-0.1,0-0.16-0.04-0.18-0.07l-2.85-3.22v3.05c0,0.13-0.11,0.24-0.24,0.24h-0.57c-0.14,0-0.24-0.11-0.24-0.24V0.33z"/>
	</g>
	<g>
		<path class="st0" d="M5.73,61.23c1.04,0,1.89,0.38,2.62,1c0.09,0.09,0.1,0.22,0.01,0.3c-0.16,0.17-0.32,0.33-0.49,0.51
			c-0.09,0.1-0.17,0.09-0.28-0.01c-0.51-0.44-1.18-0.73-1.83-0.73c-1.53,0-2.71,1.29-2.71,2.8c0,1.5,1.18,2.79,2.71,2.79
			c0.9,0,1.51-0.32,1.62-0.37v-1.21H6.32c-0.12,0-0.21-0.09-0.21-0.19V65.5c0-0.12,0.09-0.2,0.21-0.2h1.96c0.11,0,0.19,0.1,0.19,0.2
			c0,0.86,0.01,1.75,0.01,2.61c0,0.05-0.04,0.14-0.09,0.17c0,0-1.11,0.71-2.67,0.71c-2.15,0-3.88-1.72-3.88-3.87
			C1.84,62.97,3.58,61.23,5.73,61.23z"/>
		<path class="st0" d="M11.43,61.55c0-0.11,0.1-0.2,0.21-0.2h0.72c0.12,0,0.21,0.1,0.21,0.2V66c0,1.08,0.69,1.92,1.79,1.92
			c1.11,0,1.81-0.83,1.81-1.9v-4.48c0-0.11,0.09-0.2,0.21-0.2h0.72c0.11,0,0.21,0.1,0.21,0.2v4.53c0,1.64-1.24,2.92-2.95,2.92
			c-1.69,0-2.92-1.28-2.92-2.92V61.55z"/>
		<path class="st0" d="M19.52,68.61l3.31-7.26c0.03-0.06,0.13-0.12,0.18-0.12h0.11c0.05,0,0.15,0.05,0.18,0.12l3.29,7.26
			c0.06,0.14-0.02,0.28-0.18,0.28h-0.68c-0.13,0-0.21-0.06-0.25-0.16l-0.67-1.48h-3.53c-0.22,0.5-0.44,0.98-0.66,1.48
			c-0.03,0.08-0.12,0.16-0.25,0.16H19.7C19.54,68.89,19.45,68.75,19.52,68.61z M24.4,66.32l-1.33-2.96h-0.05l-1.32,2.96H24.4z"/>
		<path class="st0" d="M29.01,61.55c0-0.11,0.09-0.2,0.21-0.2h2.93c1.29,0,2.35,1.02,2.35,2.31c0,0.99-0.66,1.81-1.6,2.19l1.48,2.74
			c0.07,0.14,0,0.31-0.18,0.31h-0.84c-0.09,0-0.15-0.05-0.17-0.1l-1.43-2.86h-1.63v2.75c0,0.11-0.1,0.2-0.2,0.2h-0.7
			c-0.12,0-0.21-0.1-0.21-0.2V61.55z M32.07,65.01c0.7,0,1.32-0.59,1.32-1.34c0-0.7-0.61-1.28-1.32-1.28h-1.92v2.62H32.07z"/>
		<path class="st0" d="M36.51,68.61l3.31-7.26c0.03-0.06,0.13-0.12,0.18-0.12h0.11c0.05,0,0.15,0.05,0.18,0.12l3.29,7.26
			c0.06,0.14-0.02,0.28-0.18,0.28h-0.68c-0.13,0-0.21-0.06-0.25-0.16l-0.67-1.48h-3.53c-0.22,0.5-0.44,0.98-0.66,1.48
			c-0.03,0.08-0.12,0.16-0.25,0.16H36.7C36.54,68.89,36.45,68.75,36.51,68.61z M41.4,66.32l-1.33-2.96h-0.05l-1.32,2.96H41.4z"/>
		<path class="st0" d="M46.01,61.43c0-0.11,0.1-0.19,0.21-0.19h0.27l4.68,5.42h0.01v-5.1c0-0.11,0.09-0.2,0.21-0.2h0.69
			c0.11,0,0.21,0.1,0.21,0.2v7.26c0,0.11-0.1,0.19-0.21,0.19h-0.28l-4.68-5.57H47.1v5.25c0,0.11-0.09,0.2-0.21,0.2h-0.68
			c-0.11,0-0.21-0.1-0.21-0.2V61.43z"/>
		<path class="st0" d="M56.75,62.35h-1.76c-0.12,0-0.21-0.1-0.21-0.21v-0.6c0-0.11,0.09-0.2,0.21-0.2h4.64c0.12,0,0.21,0.1,0.21,0.2
			v0.6c0,0.11-0.09,0.21-0.21,0.21h-1.76v6.33c0,0.11-0.1,0.2-0.21,0.2h-0.71c-0.11,0-0.2-0.1-0.2-0.2V62.35z"/>
		<path class="st0" d="M62.34,61.55c0-0.11,0.09-0.2,0.21-0.2h4.32c0.12,0,0.2,0.1,0.2,0.2v0.6c0,0.11-0.09,0.21-0.2,0.21h-3.41v2.2
			h2.88c0.11,0,0.21,0.1,0.21,0.21v0.6c0,0.12-0.1,0.2-0.21,0.2h-2.88v2.32h3.41c0.12,0,0.2,0.1,0.2,0.21v0.59
			c0,0.11-0.09,0.2-0.2,0.2h-4.32c-0.12,0-0.21-0.1-0.21-0.2V61.55z"/>
		<path class="st0" d="M70.03,61.55c0-0.11,0.09-0.2,0.21-0.2h4.32c0.12,0,0.2,0.1,0.2,0.2v0.6c0,0.11-0.09,0.21-0.2,0.21h-3.41v2.2
			h2.88c0.11,0,0.21,0.1,0.21,0.21v0.6c0,0.12-0.1,0.2-0.21,0.2h-2.88v2.32h3.41c0.12,0,0.2,0.1,0.2,0.21v0.59
			c0,0.11-0.09,0.2-0.2,0.2h-4.32c-0.12,0-0.21-0.1-0.21-0.2V61.55z"/>
	</g>
	<path class="st0" d="M76.16,41.4V16.91c0-3.15-2.77-5.7-6.19-5.7H8.06c-3.42,0-6.19,2.55-6.19,5.7v34.6c0,3.15,2.77,5.7,6.19,5.7
		h55.36L76.16,41.4z"/>
	<g>
		<path class="st2" d="M21.37,38.16l1.72-1.65c0.3-0.27,0.61-0.27,0.88,0c0.1,0.13,2.09,1.82,4.15,1.82c1.82,0,3.58-1.32,3.58-3.17
			c0-1.76-1.62-3.34-4.66-3.34h-1.89c-0.37,0-0.64-0.27-0.64-0.68v-2.13c0-0.44,0.24-0.68,0.64-0.68h1.89
			c2.77,0,4.19-1.38,4.19-3.11c0-1.86-1.55-3.11-3.27-3.11c-1.76,0-2.84,0.95-3.41,1.62c-0.24,0.27-0.61,0.3-0.91,0.03l-1.65-1.55
			c-0.27-0.24-0.24-0.64,0-0.88c0,0,2.57-2.97,6.35-2.97c3.92,0,7.19,2.4,7.19,6.18c0,2.6-1.96,4.56-3.48,5.27v0.1
			c1.59,0.68,4.09,2.5,4.09,5.5c0,3.82-3.11,6.58-7.77,6.58c-4.22,0-6.28-2.13-7.02-3.01C21.13,38.76,21.17,38.39,21.37,38.16z"/>
		<path class="st2" d="M39.81,30.19c0-7.39,3.11-11.82,8.51-11.82c5.4,0,8.51,4.42,8.51,11.82c0,7.39-3.11,11.82-8.51,11.82
			C42.91,42.01,39.81,37.58,39.81,30.19z M52.4,30.19c0-5-1.49-7.83-4.09-7.83c-2.6,0-4.09,2.84-4.09,7.83
			c0,5.03,1.49,7.83,4.09,7.83C50.92,38.02,52.4,35.22,52.4,30.19z"/>
	</g>
	<rect x="20.37" y="44.65" class="st2" width="37.28" height="6.68"/>
	<g>
		<path class="st0" d="M25.36,45.53c0-0.07,0.06-0.14,0.13-0.14h1.75c1.43,0,2.59,1.16,2.59,2.58c0,1.43-1.17,2.59-2.59,2.59h-1.75
			c-0.07,0-0.13-0.07-0.13-0.14V45.53z M27.15,49.66c0.96,0,1.66-0.72,1.66-1.69c0-0.96-0.7-1.69-1.66-1.69h-0.84v3.38H27.15z"/>
		<path class="st0" d="M33.06,50.37l2.3-4.97c0.02-0.04,0.06-0.08,0.13-0.08h0.07c0.07,0,0.1,0.04,0.13,0.08l2.28,4.97
			c0.04,0.1-0.01,0.19-0.13,0.19h-0.64c-0.11,0-0.16-0.04-0.21-0.15l-0.36-0.8H34.4l-0.36,0.8c-0.03,0.07-0.1,0.15-0.21,0.15h-0.64
			C33.07,50.57,33.01,50.47,33.06,50.37z M36.25,48.8l-0.74-1.63h-0.02l-0.72,1.63H36.25z"/>
		<path class="st0" d="M42.2,48.08l-1.69-2.47c-0.06-0.1,0-0.21,0.12-0.21h0.75c0.06,0,0.1,0.04,0.12,0.07l1.18,1.7l1.18-1.7
			c0.02-0.03,0.06-0.07,0.12-0.07h0.76c0.12,0,0.18,0.12,0.12,0.21l-1.71,2.46v2.36c0,0.07-0.07,0.14-0.14,0.14h-0.68
			c-0.08,0-0.14-0.07-0.14-0.14V48.08z"/>
		<path class="st0" d="M48.18,49.84l0.27-0.46c0.06-0.1,0.18-0.1,0.25-0.05c0.04,0.02,0.64,0.46,1.12,0.46
			c0.38,0,0.67-0.25,0.67-0.57c0-0.38-0.32-0.64-0.94-0.89c-0.69-0.28-1.39-0.72-1.39-1.6c0-0.66,0.49-1.42,1.66-1.42
			c0.75,0,1.33,0.38,1.48,0.5c0.07,0.04,0.1,0.17,0.04,0.24l-0.28,0.42c-0.06,0.09-0.17,0.15-0.26,0.09
			c-0.06-0.04-0.62-0.41-1.03-0.41c-0.42,0-0.65,0.28-0.65,0.52c0,0.35,0.27,0.58,0.87,0.83c0.72,0.29,1.54,0.72,1.54,1.67
			c0,0.76-0.66,1.46-1.7,1.46c-0.93,0-1.48-0.44-1.63-0.58C48.15,50,48.11,49.96,48.18,49.84z"/>
	</g>
</g>
</svg>
