<?xml version="1.0" encoding="utf-8"?>
<!-- Generator: Adobe Illustrator 23.0.2, SVG Export Plug-In . SVG Version: 6.00 Build 0)  -->
<svg version="1.1" id="Layer_1" xmlns="http://www.w3.org/2000/svg" xmlns:xlink="http://www.w3.org/1999/xlink" x="0px" y="0px"
	 viewBox="0 0 78 69" style="enable-background:new 0 0 78 69;" xml:space="preserve">
<style type="text/css">
	.st0{fill:#04CBA6;}
	.st1{fill:none;}
	.st2{fill:#FFFFFF;}
</style>
<g>
	<g>
		<path class="st0" d="M12.48,6.99l0.53-0.94c0.09-0.15,0.31-0.13,0.39-0.07C13.45,6,14.27,6.6,15.02,6.6
			c0.45,0,0.78-0.28,0.78-0.68c0-0.48-0.4-0.84-1.17-1.15c-0.98-0.39-2.21-1.15-2.21-2.51C12.42,1.14,13.3,0,15.05,0
			c1.18,0,2.09,0.6,2.43,0.85c0.14,0.08,0.11,0.28,0.07,0.36l-0.58,0.87c-0.08,0.13-0.28,0.23-0.39,0.15
			c-0.1-0.06-0.93-0.68-1.63-0.68c-0.41,0-0.72,0.27-0.72,0.58c0,0.42,0.34,0.74,1.24,1.1c0.89,0.35,2.3,1.05,2.3,2.59
			c0,1.17-1.01,2.35-2.68,2.35c-1.48,0-2.3-0.61-2.56-0.88C12.42,7.2,12.39,7.15,12.48,6.99z"/>
		<path class="st0" d="M26.99,0c2.27,0,4.09,1.83,4.09,4.1c0,2.27-1.82,4.08-4.09,4.08s-4.08-1.81-4.08-4.08
			C22.91,1.83,24.71,0,26.99,0z M26.99,6.37c1.25,0,2.27-1.02,2.27-2.26c0-1.25-1.02-2.28-2.27-2.28c-1.24,0-2.26,1.03-2.26,2.28
			C24.72,5.34,25.75,6.37,26.99,6.37z"/>
		<path class="st0" d="M40.3,0c1.14,0,1.98,0.35,2.75,1.06c0.1,0.09,0.1,0.23,0.01,0.32L42.18,2.3c-0.08,0.08-0.21,0.08-0.28,0
			c-0.42-0.38-0.98-0.58-1.53-0.58c-1.29,0-2.23,1.07-2.23,2.34c0,1.26,0.96,2.31,2.24,2.31c0.53,0,1.11-0.19,1.52-0.55
			c0.08-0.07,0.23-0.07,0.3,0.01l0.89,0.94c0.08,0.08,0.07,0.23-0.01,0.31c-0.77,0.75-1.75,1.1-2.76,1.1c-2.27,0-4.1-1.81-4.1-4.08
			C36.19,1.83,38.02,0,40.3,0z"/>
		<path class="st0" d="M48.75,0.39c0-0.15,0.11-0.27,0.27-0.27h1.33c0.15,0,0.27,0.12,0.27,0.27v2.99l2.52-3.15
			c0.05-0.06,0.15-0.11,0.22-0.11h1.43c0.22,0,0.33,0.25,0.21,0.42l-2.66,3.33l2.9,3.77c0.12,0.17,0,0.42-0.22,0.42h-1.57
			c-0.08,0-0.18-0.05-0.2-0.08l-2.63-3.57V7.8c0,0.15-0.13,0.27-0.27,0.27h-1.33c-0.16,0-0.27-0.13-0.27-0.27V0.39z"/>
		<path class="st0" d="M60.26,6.99l0.53-0.94c0.09-0.15,0.31-0.13,0.39-0.07C61.23,6,62.05,6.6,62.8,6.6c0.45,0,0.78-0.28,0.78-0.68
			c0-0.48-0.4-0.84-1.17-1.15c-0.98-0.39-2.21-1.15-2.21-2.51C60.2,1.14,61.08,0,62.83,0c1.18,0,2.09,0.6,2.43,0.85
			c0.14,0.08,0.11,0.28,0.07,0.36l-0.58,0.87c-0.08,0.13-0.28,0.23-0.39,0.15c-0.1-0.06-0.93-0.68-1.63-0.68
			c-0.41,0-0.72,0.27-0.72,0.58c0,0.42,0.34,0.74,1.24,1.1c0.89,0.35,2.3,1.05,2.3,2.59c0,1.17-1.01,2.35-2.68,2.35
			c-1.48,0-2.3-0.61-2.56-0.88C60.2,7.2,60.17,7.15,60.26,6.99z"/>
	</g>
	<path class="st0" d="M16.14,56.76l18.72-7.78c0.94-0.4,1.53-1.24,1.53-2.21V43.2c-1.19,0.84-2.63,1.32-4.16,1.32
		c-1.87,0-3.61-0.68-4.88-1.93l-7.17-6.78c-0.17-0.2-0.51-0.52-0.81-0.96c-0.34-0.52-0.64-1.12-0.81-1.76
		c-0.64-2.17,0-4.61,1.74-6.3l6.92-6.54c1.31-1.24,3.06-1.93,4.88-1.93c1.57,0,3.1,0.52,4.29,1.4V13.8c0-1.72-1.91-2.89-3.57-2.21
		l-18.72,7.82c-0.93,0.36-1.53,1.24-1.53,2.21v32.97C12.58,56.32,14.49,57.48,16.14,56.76L16.14,56.76z M16.14,56.76"/>
	<path class="st0" d="M50.62,20.26l6.92,6.54c1.7,1.68,2.38,4.09,1.74,6.3c-0.21,0.64-0.47,1.24-0.81,1.76
		c-0.3,0.44-0.64,0.8-0.81,0.96l-0.17,0.16l-7.05,6.62c-1.32,1.24-3.06,1.93-4.88,1.93c-1.53,0-2.97-0.48-4.16-1.32v3.57
		c0,0.96,0.59,1.81,1.53,2.21l18.72,7.78c1.7,0.68,3.57-0.48,3.57-2.21V21.62c0-0.96-0.59-1.81-1.53-2.21l-18.72-7.82
		c-1.7-0.68-3.57,0.48-3.57,2.21v5.98c1.23-0.92,2.72-1.4,4.29-1.4C47.56,18.33,49.3,19.01,50.62,20.26L50.62,20.26z M50.62,20.26"
		/>
	<rect x="12.58" y="8.72" class="st1" width="53" height="48.31"/>
	<path class="st0" d="M54.44,29.56L47.6,23.1c-0.51-0.48-1.23-0.76-1.91-0.76c-0.68,0-1.36,0.24-1.91,0.76c-1.06,1-1.06,2.61,0,3.61
		l2.25,2.13H31.72l2.25-2.13c1.06-1,1.06-2.61,0-3.61c-0.51-0.48-1.23-0.76-1.91-0.76c-0.68,0-1.36,0.24-1.91,0.76l-6.84,6.46
		c-1.06,1-0.93,2.57,0,3.61l7.01,6.62c0.51,0.48,1.23,0.76,1.91,0.76c0.68,0,1.36-0.24,1.91-0.76c1.06-1,1.06-2.61,0-3.61
		l-2.42-2.29h14.31l-2.42,2.29c-1.06,1-1.06,2.61,0,3.61c0.51,0.48,1.23,0.76,1.91,0.76c0.68,0,1.36-0.24,1.91-0.76l7-6.62
		C55.5,32.17,55.46,30.57,54.44,29.56L54.44,29.56z M54.44,29.56"/>
	<g>
		<path class="st0" d="M12.89,61.23c0-0.11,0.09-0.21,0.21-0.21h2.48c1.38,0,2.52,1.12,2.52,2.48c0,1.39-1.14,2.53-2.51,2.53h-1.85
			v2.64c0,0.11-0.1,0.21-0.21,0.21h-0.43c-0.12,0-0.21-0.1-0.21-0.21V61.23z M15.53,65.2c0.92,0,1.71-0.75,1.71-1.72
			c0-0.91-0.79-1.61-1.71-1.61h-1.79v3.33H15.53z"/>
		<path class="st0" d="M23.74,61.23c0-0.11,0.09-0.21,0.21-0.21h2.91c1.35,0,2.45,1.06,2.45,2.39c0,1.03-0.69,1.9-1.66,2.29
			l1.54,2.86c0.08,0.15,0,0.33-0.19,0.33h-0.57c-0.1,0-0.16-0.06-0.18-0.1l-1.49-2.98h-2.15v2.87c0,0.11-0.1,0.21-0.21,0.21h-0.44
			c-0.12,0-0.21-0.1-0.21-0.21V61.23z M26.81,65.06c0.87,0,1.62-0.72,1.62-1.64c0-0.85-0.75-1.58-1.62-1.58h-2.18v3.23H26.81z"/>
		<path class="st0" d="M38.78,60.91c2.25,0,4.05,1.81,4.05,4.06c0,2.25-1.8,4.04-4.05,4.04c-2.25,0-4.04-1.79-4.04-4.04
			C34.75,62.72,36.54,60.91,38.78,60.91z M38.78,68.21c1.79,0,3.26-1.46,3.26-3.25c0-1.79-1.47-3.27-3.26-3.27
			c-1.79,0-3.25,1.48-3.25,3.27C35.54,66.75,37,68.21,38.78,68.21z"/>
		<path class="st0" d="M50.2,64.85L48,61.33c-0.09-0.15,0-0.31,0.19-0.31h0.61c0.08,0,0.16,0.04,0.19,0.1l1.73,2.98h0.01l1.75-2.98
			c0.03-0.06,0.1-0.1,0.19-0.1h0.61c0.19,0,0.28,0.17,0.19,0.31l-2.19,3.52l2.27,3.72c0.09,0.16,0,0.31-0.19,0.31h-0.52
			c-0.09,0-0.17-0.06-0.19-0.1l-1.92-3.18h-0.01l-1.9,3.18c-0.03,0.06-0.1,0.1-0.19,0.1h-0.52c-0.2,0-0.29-0.17-0.2-0.31L50.2,64.85
			z"/>
		<path class="st0" d="M60.9,65.1l-2.71-3.76c-0.09-0.15,0-0.33,0.18-0.33h0.53c0.08,0,0.15,0.06,0.18,0.1l2.27,3.14l2.27-3.14
			c0.03-0.05,0.1-0.1,0.18-0.1h0.53c0.18,0,0.27,0.18,0.18,0.33l-2.74,3.74v3.59c0,0.11-0.1,0.21-0.21,0.21h-0.44
			c-0.12,0-0.21-0.1-0.21-0.21V65.1z"/>
	</g>
</g>
</svg>
