<?xml version="1.0" encoding="utf-8"?>
<!-- Generator: Adobe Illustrator 23.0.2, SVG Export Plug-In . SVG Version: 6.00 Build 0)  -->
<svg version="1.1" id="Layer_1" xmlns="http://www.w3.org/2000/svg" xmlns:xlink="http://www.w3.org/1999/xlink" x="0px" y="0px"
	 viewBox="0 0 78 69" style="enable-background:new 0 0 78 69;" xml:space="preserve">
<style type="text/css">
	.st0{fill:#04CBA6;}
	.st1{fill:none;}
	.st2{fill:#FFFFFF;}
</style>
<g>
	<g>
		<path class="st0" d="M11.41,48.42c0-0.11,0.09-0.21,0.21-0.21h0.73c0.11,0,0.21,0.1,0.21,0.21v6.53h3.01
			c0.12,0,0.21,0.1,0.21,0.21v0.61c0,0.11-0.09,0.21-0.21,0.21h-3.95c-0.12,0-0.21-0.1-0.21-0.21V48.42z"/>
		<path class="st0" d="M21.4,48.1c2.22,0,4,1.79,4,4.01c0,2.22-1.78,3.98-4,3.98s-3.98-1.76-3.98-3.98
			C17.42,49.89,19.18,48.1,21.4,48.1z M21.4,54.98c1.59,0,2.89-1.29,2.89-2.87c0-1.58-1.3-2.9-2.89-2.9c-1.58,0-2.87,1.32-2.87,2.9
			C18.53,53.7,19.83,54.98,21.4,54.98z"/>
		<path class="st0" d="M31.53,48.1c1.07,0,1.94,0.39,2.7,1.03c0.09,0.09,0.1,0.22,0.01,0.31c-0.17,0.18-0.33,0.34-0.5,0.52
			c-0.09,0.1-0.18,0.09-0.29-0.01c-0.52-0.46-1.21-0.75-1.89-0.75c-1.58,0-2.79,1.33-2.79,2.89c0,1.54,1.21,2.87,2.79,2.87
			c0.92,0,1.55-0.33,1.66-0.38v-1.24h-1.09c-0.12,0-0.21-0.09-0.21-0.2V52.5c0-0.12,0.09-0.21,0.21-0.21h2.02
			c0.11,0,0.2,0.1,0.2,0.21c0,0.89,0.01,1.8,0.01,2.69c0,0.06-0.04,0.14-0.09,0.18c0,0-1.14,0.73-2.75,0.73c-2.21,0-4-1.76-4-3.98
			C27.54,49.89,29.32,48.1,31.53,48.1z"/>
		<path class="st0" d="M40.78,48.42c0-0.11,0.09-0.21,0.21-0.21h0.73c0.11,0,0.21,0.1,0.21,0.21v6.53h3.01
			c0.12,0,0.21,0.1,0.21,0.21v0.61c0,0.11-0.09,0.21-0.21,0.21h-3.95c-0.12,0-0.21-0.1-0.21-0.21V48.42z"/>
		<path class="st0" d="M47.44,48.42c0-0.11,0.09-0.21,0.21-0.21h4.44c0.12,0,0.21,0.1,0.21,0.21v0.62c0,0.11-0.09,0.21-0.21,0.21
			h-3.51v2.26h2.96c0.11,0,0.21,0.1,0.21,0.21v0.62c0,0.12-0.1,0.21-0.21,0.21h-2.96v2.39h3.51c0.12,0,0.21,0.1,0.21,0.21v0.61
			c0,0.11-0.09,0.21-0.21,0.21h-4.44c-0.12,0-0.21-0.1-0.21-0.21V48.42z"/>
		<path class="st0" d="M54.59,54.86c0.1-0.14,0.19-0.31,0.29-0.46c0.1-0.14,0.26-0.19,0.38-0.09c0.07,0.06,0.92,0.77,1.78,0.77
			c0.77,0,1.25-0.47,1.25-1.03c0-0.67-0.58-1.09-1.68-1.54c-1.13-0.48-2.02-1.07-2.02-2.35c0-0.87,0.67-2.05,2.43-2.05
			c1.11,0,1.94,0.58,2.05,0.65c0.09,0.06,0.18,0.21,0.07,0.38c-0.09,0.13-0.19,0.29-0.28,0.42c-0.09,0.14-0.23,0.21-0.39,0.11
			c-0.08-0.04-0.85-0.55-1.5-0.55c-0.93,0-1.25,0.59-1.25,1c0,0.63,0.49,1.02,1.41,1.4c1.29,0.52,2.39,1.13,2.39,2.49
			c0,1.15-1.03,2.1-2.47,2.1c-1.35,0-2.21-0.71-2.39-0.88C54.55,55.13,54.48,55.05,54.59,54.86z"/>
		<path class="st0" d="M61.66,54.86c0.1-0.14,0.19-0.31,0.29-0.46c0.1-0.14,0.26-0.19,0.38-0.09c0.07,0.06,0.92,0.77,1.78,0.77
			c0.77,0,1.25-0.47,1.25-1.03c0-0.67-0.58-1.09-1.68-1.54c-1.13-0.48-2.02-1.07-2.02-2.35c0-0.87,0.67-2.05,2.43-2.05
			c1.11,0,1.94,0.58,2.05,0.65c0.09,0.06,0.18,0.21,0.07,0.38c-0.09,0.13-0.19,0.29-0.28,0.42c-0.09,0.14-0.23,0.21-0.39,0.11
			c-0.08-0.04-0.85-0.55-1.5-0.55c-0.93,0-1.25,0.59-1.25,1c0,0.63,0.49,1.02,1.41,1.4c1.29,0.52,2.39,1.13,2.39,2.49
			c0,1.15-1.03,2.1-2.47,2.1c-1.35,0-2.21-0.71-2.39-0.88C61.63,55.13,61.55,55.05,61.66,54.86z"/>
	</g>
	<g>
		<path class="st0" d="M11.74,60.38c0-0.12,0.09-0.22,0.22-0.22h2.84c1.45,0,2.64,1.18,2.64,2.6c0,1.46-1.19,2.65-2.62,2.65h-1.24
			v2.77c0,0.12-0.11,0.22-0.22,0.22h-1.39c-0.13,0-0.22-0.11-0.22-0.22V60.38z M14.69,63.69c0.51,0,0.93-0.4,0.93-0.93
			c0-0.49-0.42-0.87-0.93-0.87h-1.12v1.8H14.69z"/>
		<path class="st0" d="M19.81,60.38c0-0.12,0.09-0.22,0.22-0.22h3.52c1.41,0,2.57,1.14,2.57,2.54c0,1.08-0.72,1.95-1.74,2.37
			l1.61,2.99c0.08,0.15,0,0.34-0.2,0.34h-1.57c-0.09,0-0.16-0.06-0.19-0.11l-1.57-3.12h-0.81v3c0,0.12-0.11,0.22-0.22,0.22h-1.4
			c-0.13,0-0.22-0.11-0.22-0.22V60.38z M23.4,63.68c0.48,0,0.89-0.45,0.89-0.94c0-0.49-0.41-0.89-0.89-0.89h-1.74v1.84H23.4z"/>
		<path class="st0" d="M28.87,60.38c0-0.12,0.11-0.22,0.22-0.22h1.41c0.12,0,0.22,0.11,0.22,0.22v7.79c0,0.12-0.11,0.22-0.22,0.22
			h-1.41c-0.12,0-0.22-0.11-0.22-0.22V60.38z"/>
		<path class="st0" d="M32.87,60.47c-0.07-0.15,0.02-0.31,0.2-0.31h1.57c0.09,0,0.18,0.07,0.2,0.13l1.94,4.3h0.07l1.94-4.3
			c0.02-0.06,0.11-0.13,0.2-0.13h1.57c0.18,0,0.27,0.15,0.2,0.31l-3.7,7.92c-0.04,0.07-0.11,0.13-0.2,0.13h-0.12
			c-0.09,0-0.16-0.06-0.2-0.13L32.87,60.47z"/>
		<path class="st0" d="M41.17,68.09l3.68-7.92c0.03-0.07,0.12-0.13,0.2-0.13h0.12c0.08,0,0.16,0.06,0.2,0.13l3.68,7.92
			c0.07,0.15-0.02,0.31-0.2,0.31h-1.31c-0.21,0-0.31-0.07-0.41-0.29l-0.42-0.93h-3.2l-0.42,0.94c-0.06,0.14-0.19,0.28-0.42,0.28
			h-1.29C41.2,68.4,41.1,68.24,41.17,68.09z M46.01,65.57l-0.89-1.94H45.1l-0.88,1.94H46.01z"/>
		<path class="st0" d="M54.78,60.04c1.18,0,2.05,0.36,2.85,1.09c0.11,0.09,0.11,0.24,0.01,0.33l-0.92,0.95
			c-0.08,0.08-0.21,0.08-0.29,0c-0.44-0.39-1.01-0.6-1.59-0.6c-1.33,0-2.31,1.11-2.31,2.42c0,1.31,0.99,2.39,2.32,2.39
			c0.55,0,1.15-0.2,1.58-0.56c0.08-0.07,0.24-0.07,0.31,0.01l0.92,0.98c0.08,0.08,0.07,0.24-0.01,0.32
			c-0.8,0.78-1.81,1.14-2.86,1.14c-2.35,0-4.25-1.87-4.25-4.22C50.53,61.94,52.42,60.04,54.78,60.04z"/>
		<path class="st0" d="M61.74,64.43l-2.6-3.93c-0.09-0.15,0-0.34,0.19-0.34h1.53c0.09,0,0.15,0.06,0.19,0.11l1.64,2.41l1.64-2.41
			c0.04-0.05,0.08-0.11,0.19-0.11h1.53c0.19,0,0.28,0.19,0.19,0.34l-2.64,3.92v3.75c0,0.12-0.11,0.22-0.22,0.22h-1.4
			c-0.13,0-0.22-0.11-0.22-0.22V64.43z"/>
	</g>
	<path class="st0" d="M65.12,17.64h-9.79L53.17,4.29c-0.2-1.26-0.94-2.38-2.01-3.07c-1.07-0.7-2.39-0.91-3.63-0.59L47,0.77
		c-5.24,1.37-10.77,1.37-16,0l-0.53-0.14c-1.24-0.32-2.56-0.11-3.63,0.59c-1.07,0.7-1.8,1.8-2,3.06l-2.16,13.36h-9.79
		c-0.8,0-1.45,0.65-1.45,1.45c0,4,3.26,7.26,7.26,7.26h40.63c4,0,7.26-3.26,7.26-7.26C66.57,18.29,65.92,17.64,65.12,17.64z"/>
	<path class="st2" d="M27.7,4.75c0.07-0.46,0.33-0.85,0.72-1.1c0.39-0.26,0.86-0.33,1.31-0.21l0.53,0.14c5.72,1.5,11.76,1.5,17.48,0
		l0.53-0.14c0.45-0.12,0.92-0.04,1.31,0.21c0.39,0.25,0.65,0.63,0.72,1.1l1.08,6.65H26.62L27.7,4.75z"/>
	<polygon class="st2" points="26.15,14.31 51.85,14.31 52.39,17.64 25.61,17.64 	"/>
	<path class="st2" d="M59.32,23.45H18.68c-1.89,0-3.51-1.16-4.11-2.9h48.84C62.82,22.29,61.21,23.45,59.32,23.45z"/>
	<path class="st0" d="M54.67,30.7H43.93c-1.89,0-3.46,1.45-3.67,3.19h-2.52c-0.22-1.74-1.78-3.19-3.67-3.19H23.33
		c-2.04,0-3.77,1.62-3.77,3.66v2.35c0,4.06,3.33,7.05,7.81,7.05h2.66c4.44,0,7.67-2.9,7.74-6.97h2.47c0.06,4.06,3.3,6.97,7.74,6.97
		h2.66c4.48,0,7.67-2.99,7.67-7.05v-2.35C58.3,32.32,56.71,30.7,54.67,30.7z M30.03,40.86h-2.66c-2.41,0-4.91-1.31-4.91-4.15v-2.35
		c0-0.44,0.43-0.76,0.87-0.76h10.74c0.44,0,0.73,0.32,0.73,0.76v2.35C34.79,39.55,32.43,40.86,30.03,40.86z M55.4,36.71
		c0,2.84-2.36,4.15-4.76,4.15h-2.66c-2.41,0-4.91-1.31-4.91-4.15v-2.35c0-0.44,0.43-0.76,0.87-0.76h10.74
		c0.44,0,0.73,0.32,0.73,0.76L55.4,36.71L55.4,36.71z"/>
</g>
</svg>
