<?xml version="1.0" encoding="utf-8"?>
<!-- Generator: Adobe Illustrator 23.0.2, SVG Export Plug-In . SVG Version: 6.00 Build 0)  -->
<svg version="1.1" id="Layer_1" xmlns="http://www.w3.org/2000/svg" xmlns:xlink="http://www.w3.org/1999/xlink" x="0px" y="0px"
	 viewBox="0 0 78 69" style="enable-background:new 0 0 78 69;" xml:space="preserve">
<style type="text/css">
	.st0{fill:#04CBA6;}
	.st1{fill:none;}
	.st2{fill:#FFFFFF;}
</style>
<g>
	<g>
		<path class="st0" d="M15.86,7.86c-0.07-0.1-0.04-0.25,0.06-0.31l0.91-0.64c0.1-0.07,0.25-0.04,0.32,0.06l4.52,6.45
			c0.07,0.1,0.04,0.25-0.06,0.31l-0.91,0.64c-0.1,0.07-0.25,0.04-0.31-0.06L15.86,7.86z"/>
		<path class="st0" d="M22.38,3.95c-0.06-0.14,0.01-0.31,0.16-0.37l0.98-0.37c0.15-0.06,0.31,0.02,0.37,0.16l1.15,3l1.59-4.23
			c0.02-0.07,0.07-0.15,0.17-0.19l1.11-0.42c0.21-0.08,0.41,0.11,0.33,0.33L26.6,6.24l4.54,2.53c0.17,0.1,0.17,0.38-0.05,0.47
			L29.87,9.7c-0.11,0.04-0.2,0.02-0.23,0l-4.27-2.47l1.3,3.39c0.06,0.14-0.02,0.31-0.17,0.37l-0.98,0.37
			c-0.16,0.06-0.31-0.02-0.37-0.16L22.38,3.95z"/>
		<path class="st0" d="M33.81,0.58c-0.01-0.12,0.08-0.23,0.21-0.24L38.85,0c0.13-0.01,0.23,0.09,0.24,0.21l0.07,0.97
			c0.01,0.12-0.08,0.23-0.21,0.24l-3.52,0.24l0.14,1.95l2.93-0.2c0.12-0.01,0.23,0.09,0.24,0.21l0.07,0.99
			c0.01,0.13-0.09,0.23-0.21,0.24l-2.93,0.2l0.14,2.08l3.52-0.24c0.13-0.01,0.23,0.09,0.24,0.21l0.07,0.97
			c0.01,0.12-0.08,0.23-0.21,0.24L34.6,8.65c-0.13,0.01-0.23-0.09-0.24-0.21L33.81,0.58z"/>
		<path class="st0" d="M43.9,0.5c-0.04-0.17,0.09-0.3,0.27-0.26l1.18,0.27c0.11,0.02,0.16,0.11,0.17,0.17l1.09,5.5l0.08,0.02
			l3.37-4.48c0.04-0.05,0.12-0.11,0.23-0.08l1.18,0.27c0.17,0.04,0.23,0.21,0.13,0.35l-5.38,6.99c-0.05,0.06-0.12,0.11-0.23,0.08
			l-0.12-0.03c-0.1-0.02-0.15-0.1-0.17-0.17L43.9,0.5z"/>
		<path class="st0" d="M52.03,10.6c1.15-0.45,3.41-1.42,4.63-1.95c0.54-0.21,0.98-0.5,1.17-0.86c0.26-0.47,0.18-1.14-0.57-1.56
			c-0.5-0.28-1.12-0.16-1.51-0.04c-0.13,0.04-0.25-0.03-0.28-0.16l-0.22-0.78c-0.03-0.1,0.02-0.23,0.14-0.28
			c0,0,1.38-0.56,2.62,0.13c1.48,0.83,1.79,2.24,1.16,3.36c-0.38,0.67-0.91,0.94-1.64,1.29c-0.8,0.38-2.14,0.92-3.08,1.31l2.24,1.26
			c0.1,0.06,0.15,0.2,0.09,0.31l-0.4,0.72c-0.06,0.1-0.21,0.14-0.31,0.09l-4.09-2.29c-0.12-0.06-0.15-0.2-0.09-0.31L52.03,10.6z"/>
	</g>
	<path class="st0" d="M27.94,12.18c-15.1,6.11-22.38,23.29-16.27,38.39c6.11,15.1,23.29,22.38,38.39,16.27s22.38-23.29,16.27-38.39
		C60.22,13.35,43.04,6.07,27.94,12.18z"/>
	<circle class="st2" cx="39" cy="39.51" r="24.86"/>
	<g>
		<path class="st0" d="M37.38,40.71c0.52-1.22,0.95-2.18,1.31-2.88c0.27-0.52,0.52-0.95,0.76-1.31c0.24-0.35,0.52-0.7,0.86-1.03
			c0.34-0.34,0.72-0.59,1.16-0.76c0.44-0.17,0.92-0.25,1.46-0.25h4.31v3.23c0,0.15,0.05,0.27,0.16,0.38
			c0.11,0.11,0.23,0.16,0.38,0.16c0.16,0,0.29-0.05,0.39-0.15l5.38-5.39c0.1-0.1,0.15-0.23,0.15-0.39c0-0.16-0.05-0.29-0.15-0.39
			l-5.37-5.37c-0.14-0.11-0.27-0.17-0.4-0.17c-0.16,0-0.29,0.05-0.39,0.15c-0.1,0.1-0.15,0.23-0.15,0.39v3.23h-4.31
			c-0.76,0-1.48,0.09-2.15,0.28c-0.67,0.18-1.27,0.42-1.79,0.71c-0.52,0.29-1.03,0.67-1.51,1.15c-0.49,0.48-0.9,0.95-1.24,1.4
			c-0.34,0.45-0.7,1.01-1.08,1.68c-0.38,0.67-0.68,1.26-0.91,1.77c-0.23,0.51-0.51,1.13-0.83,1.87c-0.52,1.22-0.95,2.18-1.31,2.88
			c-0.27,0.52-0.52,0.95-0.76,1.3c-0.24,0.35-0.52,0.7-0.86,1.03c-0.34,0.34-0.72,0.59-1.16,0.76c-0.44,0.17-0.92,0.25-1.46,0.25
			h-3.77c-0.16,0-0.29,0.05-0.39,0.15c-0.1,0.1-0.15,0.23-0.15,0.39v3.23c0,0.16,0.05,0.29,0.15,0.39c0.1,0.1,0.23,0.15,0.39,0.15
			h3.77c0.76,0,1.48-0.09,2.15-0.28c0.67-0.18,1.27-0.42,1.79-0.71c0.52-0.29,1.03-0.67,1.51-1.15c0.49-0.48,0.9-0.95,1.25-1.4
			c0.34-0.45,0.7-1.01,1.08-1.68c0.38-0.67,0.68-1.26,0.91-1.77C36.78,42.07,37.06,41.45,37.38,40.71L37.38,40.71z M37.38,40.71"/>
		<path class="st0" d="M24.09,34.48h3.77c0.49,0,0.95,0.08,1.37,0.24c0.42,0.16,0.77,0.36,1.06,0.59c0.29,0.23,0.57,0.55,0.86,0.95
			c0.29,0.4,0.51,0.76,0.68,1.07c0.17,0.31,0.38,0.72,0.62,1.22c0.86-2.03,1.63-3.56,2.31-4.59c-1.8-2.52-4.1-3.79-6.9-3.79h-3.77
			c-0.16,0-0.29,0.05-0.39,0.15c-0.1,0.1-0.15,0.23-0.15,0.39v3.23c0,0.16,0.05,0.29,0.15,0.39C23.8,34.43,23.93,34.48,24.09,34.48
			L24.09,34.48z M24.09,34.48"/>
		<path class="st0" d="M48.19,41.65c-0.14-0.11-0.27-0.17-0.4-0.17c-0.16,0-0.29,0.05-0.39,0.15c-0.1,0.1-0.15,0.23-0.15,0.39v3.23
			h-4.31c-0.49,0-0.95-0.08-1.37-0.25c-0.42-0.16-0.77-0.36-1.06-0.59c-0.29-0.23-0.57-0.55-0.86-0.95
			c-0.29-0.4-0.51-0.76-0.68-1.07c-0.17-0.31-0.38-0.72-0.62-1.22c-0.86,2.02-1.63,3.55-2.29,4.59c0.3,0.44,0.62,0.83,0.94,1.17
			c0.32,0.34,0.63,0.64,0.93,0.9c0.29,0.26,0.62,0.48,0.99,0.67c0.37,0.19,0.7,0.35,0.98,0.48c0.28,0.13,0.63,0.23,1.06,0.31
			c0.43,0.08,0.79,0.14,1.08,0.18c0.29,0.04,0.69,0.07,1.2,0.08c0.51,0.02,0.91,0.02,1.23,0.02c0.31,0,0.77-0.01,1.36-0.02
			c0.59-0.01,1.07-0.01,1.43-0.01v3.23c0,0.15,0.05,0.27,0.16,0.38c0.11,0.11,0.23,0.16,0.38,0.16c0.16,0,0.29-0.05,0.39-0.15
			l5.39-5.39c0.1-0.1,0.15-0.23,0.15-0.39c0-0.16-0.05-0.29-0.15-0.39L48.19,41.65z M48.19,41.65"/>
	</g>
</g>
</svg>
