<?xml version="1.0" encoding="utf-8"?>
<!-- Generator: Adobe Illustrator 23.0.2, SVG Export Plug-In . SVG Version: 6.00 Build 0)  -->
<svg version="1.1" id="Layer_1" xmlns="http://www.w3.org/2000/svg" xmlns:xlink="http://www.w3.org/1999/xlink" x="0px" y="0px"
	 viewBox="0 0 78 69" style="enable-background:new 0 0 78 69;" xml:space="preserve">
<style type="text/css">
	.st0{fill:#04CBA6;}
	.st1{fill:none;}
	.st2{fill:#FFFFFF;}
</style>
<g>
	<g>
		<path class="st0" d="M15.35,47.69c0-0.12,0.11-0.23,0.23-0.23h0.8c0.13,0,0.23,0.11,0.23,0.23v3.4h4.46v-3.4
			c0-0.12,0.1-0.23,0.23-0.23h0.8c0.12,0,0.23,0.11,0.23,0.23v8.07c0,0.12-0.11,0.23-0.23,0.23h-0.8c-0.13,0-0.23-0.11-0.23-0.23
			v-3.52h-4.46v3.52c0,0.12-0.1,0.23-0.23,0.23h-0.8c-0.12,0-0.23-0.11-0.23-0.23V47.69z"/>
		<path class="st0" d="M26.01,55.68l3.74-8.21c0.04-0.07,0.15-0.13,0.21-0.13h0.12c0.06,0,0.17,0.06,0.21,0.13l3.72,8.21
			c0.07,0.16-0.02,0.32-0.21,0.32h-0.77c-0.15,0-0.23-0.07-0.28-0.18L32,54.14h-3.99c-0.24,0.56-0.5,1.11-0.74,1.67
			c-0.04,0.09-0.13,0.18-0.28,0.18h-0.77C26.04,55.99,25.94,55.84,26.01,55.68z M31.54,53.09l-1.5-3.34h-0.06l-1.49,3.34H31.54z"/>
		<path class="st0" d="M37.67,47.69c0-0.12,0.1-0.23,0.23-0.23h2.78c1.5,0,2.73,1.22,2.73,2.69c0,1.51-1.23,2.74-2.72,2.74h-1.77
			v2.87c0,0.12-0.11,0.23-0.23,0.23H37.9c-0.13,0-0.23-0.11-0.23-0.23V47.69z M40.61,51.7c0.84,0,1.55-0.68,1.55-1.56
			c0-0.83-0.71-1.46-1.55-1.46h-1.68v3.02H40.61z"/>
		<path class="st0" d="M47.35,47.69c0-0.12,0.1-0.23,0.23-0.23h2.78c1.5,0,2.73,1.22,2.73,2.69c0,1.51-1.23,2.74-2.72,2.74h-1.77
			v2.87c0,0.12-0.11,0.23-0.23,0.23h-0.79c-0.13,0-0.23-0.11-0.23-0.23V47.69z M50.29,51.7c0.84,0,1.55-0.68,1.55-1.56
			c0-0.83-0.71-1.46-1.55-1.46h-1.68v3.02H50.29z"/>
		<path class="st0" d="M58.71,51.89l-2.85-4.07c-0.1-0.16,0-0.35,0.2-0.35h0.9c0.1,0,0.16,0.06,0.2,0.11l2.21,3.11l2.21-3.11
			c0.04-0.05,0.11-0.11,0.2-0.11h0.91c0.2,0,0.29,0.2,0.2,0.35l-2.89,4.06v3.89c0,0.12-0.11,0.23-0.23,0.23h-0.8
			c-0.13,0-0.23-0.11-0.23-0.23V51.89z"/>
		<path class="st0" d="M15.1,60.53c0-0.12,0.11-0.23,0.23-0.23h1.5c0.13,0,0.23,0.11,0.23,0.23v4.94c0,0.85,0.63,1.54,1.5,1.54
			c0.88,0,1.52-0.68,1.52-1.54v-4.94c0-0.12,0.1-0.23,0.23-0.23h1.5c0.12,0,0.23,0.11,0.23,0.23v5.04c0,1.85-1.56,3.39-3.49,3.39
			c-1.91,0-3.46-1.54-3.46-3.39V60.53z"/>
		<path class="st0" d="M25.96,67.67l0.57-1.01c0.1-0.16,0.33-0.13,0.41-0.07c0.05,0.02,0.93,0.67,1.73,0.67
			c0.49,0,0.84-0.3,0.84-0.73c0-0.51-0.43-0.9-1.26-1.23c-1.05-0.41-2.37-1.23-2.37-2.69c0-1.21,0.94-2.43,2.82-2.43
			c1.27,0,2.24,0.65,2.61,0.91c0.15,0.09,0.12,0.3,0.07,0.39l-0.62,0.94c-0.08,0.13-0.3,0.24-0.41,0.16c-0.11-0.06-1-0.73-1.74-0.73
			c-0.44,0-0.77,0.29-0.77,0.62c0,0.45,0.37,0.79,1.33,1.18c0.95,0.38,2.46,1.12,2.46,2.78c0,1.26-1.08,2.52-2.88,2.52
			c-1.59,0-2.46-0.66-2.74-0.94C25.9,67.89,25.87,67.84,25.96,67.67z"/>
		<path class="st0" d="M35.57,60.53c0-0.12,0.1-0.23,0.23-0.23h5.05c0.13,0,0.23,0.11,0.23,0.23v1.33c0,0.12-0.1,0.23-0.23,0.23
			h-3.38v1.51h2.78c0.12,0,0.23,0.11,0.23,0.23v1.33c0,0.13-0.11,0.23-0.23,0.23h-2.78v1.65h3.38c0.13,0,0.23,0.11,0.23,0.23v1.33
			c0,0.12-0.1,0.23-0.23,0.23H35.8c-0.13,0-0.23-0.11-0.23-0.23V60.53z"/>
		<path class="st0" d="M45.16,60.53c0-0.12,0.1-0.23,0.23-0.23h3.65c1.46,0,2.66,1.18,2.66,2.63c0,1.12-0.74,2.02-1.8,2.45l1.67,3.1
			c0.09,0.16,0,0.35-0.21,0.35h-1.62c-0.1,0-0.17-0.06-0.2-0.11l-1.62-3.23h-0.84v3.11c0,0.12-0.11,0.23-0.23,0.23h-1.45
			c-0.13,0-0.23-0.11-0.23-0.23V60.53z M48.88,63.94c0.5,0,0.93-0.46,0.93-0.98c0-0.51-0.43-0.93-0.93-0.93h-1.81v1.9H48.88z"/>
		<path class="st0" d="M55.28,67.67l0.57-1.01c0.1-0.16,0.33-0.13,0.41-0.07c0.05,0.02,0.93,0.67,1.73,0.67
			c0.49,0,0.84-0.3,0.84-0.73c0-0.51-0.43-0.9-1.26-1.23c-1.05-0.41-2.37-1.23-2.37-2.69c0-1.21,0.94-2.43,2.82-2.43
			c1.27,0,2.24,0.65,2.61,0.91c0.15,0.09,0.12,0.3,0.07,0.39l-0.62,0.94c-0.08,0.13-0.3,0.24-0.41,0.16c-0.11-0.06-1-0.73-1.74-0.73
			c-0.44,0-0.77,0.29-0.77,0.62c0,0.45,0.37,0.79,1.33,1.18c0.95,0.38,2.46,1.12,2.46,2.78c0,1.26-1.08,2.52-2.88,2.52
			c-1.59,0-2.46-0.66-2.74-0.94C55.22,67.89,55.18,67.84,55.28,67.67z"/>
	</g>
	<g>
		<path class="st0" d="M23.95,14.71c-0.12-1.1-0.45-3.29-0.64-4.47c-0.06-0.52-0.21-0.96-0.47-1.22c-0.35-0.33-0.95-0.41-1.49,0.14
			c-0.36,0.37-0.4,0.94-0.38,1.3c0,0.12-0.08,0.21-0.2,0.21l-0.73,0.01c-0.09,0-0.2-0.07-0.21-0.19c0,0-0.17-1.33,0.71-2.24
			c1.06-1.1,2.36-1.04,3.19-0.24c0.5,0.48,0.61,1,0.75,1.72c0.15,0.78,0.31,2.07,0.43,2.97l1.6-1.66c0.07-0.08,0.21-0.08,0.29,0
			l0.53,0.51c0.08,0.07,0.08,0.21,0,0.29l-2.93,3.03c-0.08,0.08-0.21,0.08-0.29,0L23.95,14.71z"/>
		<path class="st0" d="M28.22,6.72c-0.93-2.15-0.58-3.83,0.99-4.51c1.57-0.68,3.03,0.21,3.96,2.37c0.93,2.15,0.59,3.83-0.99,4.51
			C30.61,9.77,29.15,8.87,28.22,6.72z M31.88,5.14c-0.63-1.45-1.42-2.09-2.18-1.76c-0.76,0.33-0.83,1.34-0.2,2.79
			c0.63,1.46,1.42,2.09,2.18,1.76C32.44,7.6,32.52,6.6,31.88,5.14z"/>
		<path class="st0" d="M37.34,3.75c0.04-2.34,1.04-3.73,2.76-3.7s2.68,1.44,2.64,3.79c-0.04,2.34-1.04,3.73-2.76,3.7
			C38.26,7.52,37.3,6.1,37.34,3.75z M41.33,3.82c0.02-1.58-0.43-2.49-1.26-2.5c-0.82-0.01-1.31,0.88-1.34,2.46
			c-0.02,1.6,0.43,2.49,1.26,2.5C40.82,6.29,41.3,5.41,41.33,3.82z"/>
		<path class="st0" d="M46.88,4.79c0.99-2.12,2.48-2.98,4.03-2.25c1.55,0.73,1.85,2.41,0.86,4.53c-0.99,2.12-2.48,2.98-4.03,2.25
			C46.19,8.6,45.89,6.92,46.88,4.79z M50.5,6.48c0.67-1.43,0.63-2.45-0.12-2.8c-0.75-0.35-1.55,0.27-2.22,1.7
			c-0.68,1.44-0.63,2.45,0.12,2.8C49.02,8.53,49.82,7.93,50.5,6.48z"/>
		<path class="st0" d="M56.02,11.35l-1.06-1.2c-0.07-0.08-0.06-0.22,0.02-0.29l0.45-0.4c0.08-0.07,0.22-0.06,0.29,0.02l1.06,1.2
			l1.21-1.07c0.08-0.07,0.21-0.06,0.28,0.02l0.4,0.45c0.07,0.08,0.07,0.21-0.01,0.28l-1.21,1.07l1.07,1.21
			c0.07,0.08,0.06,0.21-0.02,0.28l-0.45,0.4c-0.08,0.07-0.21,0.07-0.28-0.01l-1.07-1.21l-1.19,1.06c-0.08,0.07-0.21,0.06-0.28-0.02
			l-0.4-0.45c-0.07-0.08-0.07-0.21,0.01-0.28L56.02,11.35z"/>
	</g>
	<path class="st0" d="M39.73,8.65c-9.86,0-17.85,7.99-17.85,17.85c0,9.86,7.99,17.85,17.85,17.85s17.85-7.99,17.85-17.85
		C57.58,16.64,49.59,8.65,39.73,8.65z"/>
	<path class="st2" d="M39.73,12.74c-7.59,0-13.75,6.16-13.75,13.75c0,7.59,6.16,13.75,13.75,13.75s13.75-6.16,13.75-13.75
		C53.48,18.9,47.33,12.74,39.73,12.74z"/>
	<path class="st0" d="M39.38,35.51c-0.3,0-0.6-0.01-0.89-0.04c-4.61-0.43-7.35-4.09-7.46-4.25c-0.33-0.45-0.23-1.08,0.21-1.41
		c0.45-0.33,1.08-0.23,1.41,0.21l0,0c0.02,0.03,2.35,3.1,6.05,3.44c2.65,0.24,5.44-0.96,8.25-3.58c0.41-0.38,1.05-0.36,1.43,0.05
		c0.38,0.41,0.36,1.05-0.05,1.43C45.36,34.11,42.35,35.51,39.38,35.51z"/>
</g>
</svg>
