<?xml version="1.0" encoding="utf-8"?>
<!-- Generator: Adobe Illustrator 23.0.2, SVG Export Plug-In . SVG Version: 6.00 Build 0)  -->
<svg version="1.1" id="Layer_1" xmlns="http://www.w3.org/2000/svg" xmlns:xlink="http://www.w3.org/1999/xlink" x="0px" y="0px"
	 viewBox="0 0 78 69" style="enable-background:new 0 0 78 69;" xml:space="preserve">
<style type="text/css">
	.st0{fill:#04CBA6;}
	.st1{fill:none;}
	.st2{fill:#FFFFFF;}
</style>
<g>
	<g>
		<path class="st0" d="M0.58,44.74c-0.11,0.01-0.22-0.08-0.23-0.2l-0.22-3.26c-0.09-1.37,0.93-2.56,2.29-2.65
			c1.05-0.07,1.95,0.57,2.42,1.53l2.79-1.76c0.14-0.09,0.33-0.02,0.34,0.17l0.08,1.2c0.01,0.1-0.05,0.16-0.09,0.19l-2.92,1.72
			l0.09,1.27l2.91-0.2c0.11-0.01,0.22,0.09,0.23,0.2L8.34,44c0.01,0.12-0.09,0.22-0.2,0.23L0.58,44.74z M3.78,41.15
			c-0.04-0.61-0.6-1.1-1.24-1.05c-0.61,0.04-1.07,0.6-1.03,1.2l0.13,1.86l2.27-0.15L3.78,41.15z"/>
		<path class="st0" d="M0.75,33.18c-0.11-0.02-0.19-0.14-0.16-0.26l1.02-4.54c0.03-0.12,0.15-0.19,0.26-0.16l0.91,0.21
			c0.11,0.03,0.19,0.14,0.16,0.26l-0.74,3.3l1.83,0.41l0.62-2.75c0.02-0.11,0.15-0.19,0.26-0.16l0.93,0.21
			c0.12,0.03,0.19,0.15,0.16,0.26L5.38,32.7l1.95,0.44l0.74-3.3c0.03-0.12,0.15-0.19,0.26-0.16l0.92,0.21
			c0.11,0.03,0.19,0.14,0.16,0.26l-1.02,4.54c-0.03,0.12-0.15,0.19-0.26,0.16L0.75,33.18z"/>
		<path class="st0" d="M9.52,26.65l-0.43-0.7c-0.1-0.16-0.01-0.33,0.11-0.38c0.06-0.03,1.09-0.54,1.43-1.2
			c0.28-0.53,0.14-1.1-0.29-1.33c-0.52-0.27-1.1-0.03-1.89,0.64c-0.89,0.75-2,1.38-3.19,0.74c-0.9-0.48-1.59-1.69-0.74-3.3
			c0.55-1.03,1.49-1.54,1.75-1.66c0.11-0.07,0.3-0.01,0.37,0.12l0.37,0.69c0.08,0.14,0.08,0.34-0.07,0.42
			c-0.09,0.05-1.01,0.55-1.3,1.11c-0.31,0.58-0.09,1.09,0.24,1.26c0.47,0.25,1,0.05,1.76-0.59c0.91-0.77,2.1-1.59,3.4-0.9
			c1.04,0.55,1.53,1.96,0.77,3.39c-0.67,1.27-1.67,1.71-1.97,1.81C9.71,26.8,9.64,26.82,9.52,26.65z"/>
		<path class="st0" d="M9.17,14.64c-0.08-0.08-0.1-0.22-0.01-0.31L11,12.37c0.96-1.03,2.59-1.09,3.6-0.14
			c1.03,0.97,1.09,2.6,0.13,3.62l-0.98,1.04l1.96,1.84c0.08,0.08,0.09,0.22,0.01,0.31l-0.72,0.77c-0.09,0.09-0.22,0.09-0.31,0.01
			L9.17,14.64z M13.64,14.97c0.44-0.47,0.43-1.21-0.06-1.67c-0.46-0.43-1.18-0.37-1.62,0.1l-0.91,0.97l1.68,1.57L13.64,14.97z"/>
		<path class="st0" d="M20.11,5.26c2-1.1,4.5-0.37,5.6,1.63s0.38,4.48-1.63,5.58c-2,1.1-4.48,0.39-5.58-1.62
			C17.4,8.86,18.11,6.37,20.11,5.26z M23.37,11.18c1.26-0.7,1.74-2.3,1.04-3.56c-0.7-1.26-2.32-1.74-3.58-1.05
			c-1.26,0.7-1.71,2.32-1.02,3.58C20.5,11.41,22.1,11.87,23.37,11.18z"/>
		<path class="st0" d="M29.38,1.65c-0.02-0.11,0.07-0.22,0.18-0.24l0.28-0.05l5.52,4.22l0.01,0l-0.77-4.66
			c-0.02-0.11,0.05-0.23,0.18-0.25l1.04-0.17c0.11-0.02,0.23,0.07,0.25,0.18l1.25,7.6c0.02,0.11-0.07,0.22-0.18,0.24l-0.27,0.04
			L31.3,4.16l-0.01,0l0.8,4.86c0.02,0.11-0.05,0.23-0.18,0.25l-1.03,0.17c-0.11,0.02-0.23-0.07-0.25-0.18L29.38,1.65z"/>
		<path class="st0" d="M40.8,7.35l0.51-0.65c0.11-0.15,0.3-0.12,0.4-0.03c0.05,0.04,0.88,0.84,1.61,0.94
			c0.59,0.08,1.08-0.24,1.15-0.73c0.08-0.58-0.35-1.04-1.25-1.56c-1.01-0.58-1.98-1.4-1.79-2.74c0.14-1.01,1.05-2.07,2.85-1.82
			c1.16,0.16,1.96,0.87,2.16,1.07c0.1,0.08,0.11,0.28,0.02,0.38l-0.52,0.59C45.83,2.93,45.64,3,45.52,2.89
			c-0.08-0.07-0.86-0.75-1.49-0.84c-0.65-0.09-1.06,0.29-1.11,0.65c-0.07,0.53,0.29,0.95,1.16,1.45c1.04,0.59,2.22,1.43,2.01,2.89
			c-0.16,1.17-1.32,2.1-2.91,1.88c-1.43-0.2-2.17-0.98-2.37-1.23C40.73,7.58,40.68,7.52,40.8,7.35z"/>
		<path class="st0" d="M51.99,2.93c0.04-0.11,0.17-0.16,0.28-0.11l4.28,1.83c0.12,0.05,0.16,0.18,0.12,0.28L56.3,5.79
			c-0.04,0.1-0.17,0.16-0.28,0.11L52.9,4.57L52.16,6.3l2.6,1.11c0.11,0.04,0.16,0.18,0.11,0.28L54.5,8.57
			c-0.05,0.12-0.18,0.16-0.28,0.12l-2.6-1.11l-0.79,1.84l3.11,1.33c0.12,0.05,0.16,0.18,0.11,0.29l-0.37,0.86
			c-0.04,0.1-0.17,0.16-0.28,0.11l-4.28-1.83c-0.12-0.05-0.16-0.18-0.11-0.29L51.99,2.93z"/>
		<path class="st0" d="M65.58,12.97l-1.21-1.27c-0.09-0.09-0.08-0.23,0.01-0.31l0.68-0.65c0.08-0.08,0.22-0.08,0.31,0.01l3.45,3.62
			c0.09,0.09,0.08,0.23-0.01,0.31l-0.68,0.65c-0.08,0.08-0.22,0.08-0.31-0.01l-1.21-1.27l-4.64,4.43c-0.08,0.08-0.23,0.08-0.31-0.01
			l-0.73-0.77c-0.08-0.08-0.08-0.23,0.01-0.31L65.58,12.97z"/>
		<path class="st0" d="M71.5,18.53c0.1-0.06,0.24-0.03,0.3,0.07l0.56,0.91c0.06,0.1,0.03,0.24-0.07,0.3l-6.46,3.95
			c-0.1,0.06-0.24,0.03-0.3-0.07l-0.56-0.91c-0.06-0.1-0.03-0.24,0.07-0.3L71.5,18.53z"/>
		<path class="st0" d="M75.47,25.87c0.09-0.01,0.19,0.03,0.22,0.15l0.05,0.18c0.03,0.09,0,0.17-0.06,0.22l-4.51,3.89
			c0.01,0.02,0.01,0.02,0.01,0.03l5.88,0.96c0.08,0.01,0.14,0.06,0.16,0.16l0.05,0.18c0.03,0.12-0.02,0.21-0.11,0.24l-7.03,3.39
			c-0.14,0.08-0.27,0.02-0.31-0.13l-0.28-1c-0.03-0.1,0.04-0.21,0.11-0.26l3.99-1.83c0-0.01-0.01-0.03-0.01-0.03l-4.87-0.71
			c-0.07,0-0.15-0.05-0.17-0.15l-0.06-0.2c-0.03-0.1,0.01-0.17,0.07-0.22l3.78-3.17c0,0-0.01-0.02-0.01-0.03L68,28.07
			c-0.08,0.01-0.19-0.05-0.22-0.15l-0.28-0.99c-0.04-0.14,0.03-0.26,0.19-0.28L75.47,25.87z"/>
		<path class="st0" d="M77.67,38.98c0.11,0.01,0.21,0.1,0.21,0.23l-0.24,4.65c-0.01,0.13-0.11,0.21-0.23,0.21l-0.94-0.05
			c-0.11-0.01-0.21-0.1-0.21-0.23l0.17-3.38l-1.87-0.09l-0.14,2.82c-0.01,0.11-0.11,0.21-0.23,0.21l-0.95-0.05
			c-0.12-0.01-0.21-0.11-0.2-0.23l0.14-2.82l-2-0.1l-0.17,3.38c-0.01,0.13-0.11,0.21-0.23,0.21l-0.94-0.05
			c-0.11-0.01-0.21-0.1-0.21-0.23l0.24-4.65c0.01-0.13,0.11-0.21,0.23-0.21L77.67,38.98z"/>
	</g>
	<path class="st0" d="M28.03,12.38c-14.91,6.03-22.1,23-16.07,37.91c6.03,14.91,23,22.1,37.91,16.07s22.1-23.01,16.07-37.91
		C59.91,13.54,42.93,6.35,28.03,12.38z"/>
	<path class="st2" d="M41.89,63.92l-0.06-1.96c-0.04-1.21-1.05-2.17-2.26-2.13c-1.21,0.04-2.17,1.05-2.13,2.26l0.06,1.96
		c-11.93-0.69-21.71-9.93-23.1-21.8l1.89-0.06c1.21-0.04,2.17-1.05,2.13-2.26c-0.04-1.21-1.05-2.17-2.26-2.13l-1.88,0.06
		C15,25.98,24.19,16.24,36.01,14.83l0.05,1.82c0.04,1.21,1.05,2.17,2.26,2.13c1.21-0.04,2.17-1.05,2.13-2.26L40.4,14.7
		c11.88,0.69,21.64,9.86,23.08,21.67l-1.88,0.06c-1.21,0.04-2.17,1.05-2.13,2.26c0.04,1.21,1.05,2.17,2.26,2.13l1.89-0.06
		C62.96,52.7,53.75,62.5,41.89,63.92z"/>
	<path class="st0" d="M33.91,24.15c0.33-0.1,0.56,0.02,0.66,0.32l0.55,1.37c0.12,0.28,0.03,0.54-0.41,0.68
		c-1.09,0.36-4.4,1.97-5.09,4.55c0.39-0.24,1.56-0.67,2.66-0.68c2.34-0.03,4.79,1.68,4.83,5.02c0.03,2.95-2.35,5.38-5.23,5.41
		c-3.67,0.04-5.6-2.89-5.63-6.39C26.16,27.6,31.9,24.82,33.91,24.15z M34.45,35.39c-0.02-1.5-1.22-2.72-2.72-2.71
		c-1.54,0.02-2.44,1.22-2.69,2.06c0.02,1.59,0.88,3.43,2.77,3.41C33.29,38.14,34.47,36.86,34.45,35.39z"/>
	<path class="st0" d="M39.24,32.55c-0.06-5.12,2.06-8.21,5.8-8.25c3.74-0.04,5.93,3,5.98,8.12c0.06,5.12-2.06,8.21-5.8,8.25
		C41.48,40.71,39.29,37.67,39.24,32.55z M47.96,32.46c-0.04-3.46-1.09-5.41-2.89-5.39c-1.8,0.02-2.81,2-2.77,5.46
		c0.04,3.48,1.09,5.41,2.89,5.39S48,35.94,47.96,32.46z"/>
	<g>
		<path class="st0" d="M26.13,53.1c0.07-0.09,0.15-0.2,0.22-0.29c0.15-0.2,0.31-0.32,0.53-0.14c0.11,0.09,1.22,1.13,2.56,1.12
			c1.22-0.01,2.01-0.79,2-1.68c-0.01-1.04-0.92-1.65-2.66-2.35c-1.67-0.7-2.67-1.37-2.69-3.09c-0.01-1.02,0.78-2.69,3.18-2.72
			c1.48-0.02,2.59,0.74,2.59,0.74c0.09,0.04,0.27,0.22,0.1,0.51c-0.06,0.09-0.12,0.2-0.18,0.29c-0.13,0.21-0.28,0.27-0.53,0.14
			c-0.11-0.06-1.06-0.68-1.98-0.67c-1.6,0.02-2.07,1.05-2.06,1.68c0.01,1.01,0.79,1.59,2.06,2.1c2.04,0.81,3.36,1.56,3.38,3.31
			c0.02,1.57-1.46,2.73-3.23,2.75c-1.78,0.02-3-1.01-3.19-1.19C26.11,53.5,25.95,53.38,26.13,53.1z"/>
		<path class="st0" d="M34.75,44.32c0-0.15,0.12-0.29,0.28-0.29l5.94-0.06c0.17,0,0.29,0.13,0.29,0.28l0,0.44
			c0,0.15-0.12,0.29-0.28,0.29l-5.06,0.06l0.04,3.68l4.33-0.05c0.15,0,0.29,0.13,0.29,0.28l0,0.44c0,0.17-0.13,0.29-0.28,0.29
			l-4.33,0.05l0.04,3.84l5.06-0.06c0.17,0,0.29,0.13,0.29,0.28l0,0.44c0,0.15-0.12,0.29-0.28,0.29l-5.94,0.06
			c-0.17,0-0.29-0.13-0.29-0.28L34.75,44.32z"/>
		<path class="st0" d="M48.29,43.73c1.52-0.02,2.63,0.5,3.66,1.36c0.12,0.12,0.14,0.3,0.02,0.42l-0.4,0.41
			c-0.12,0.15-0.24,0.14-0.39-0.01c-0.79-0.67-1.87-1.11-2.89-1.1c-2.38,0.03-4.18,2.05-4.16,4.39c0.03,2.32,1.87,4.31,4.25,4.28
			c1.31-0.01,2.07-0.55,2.87-1.16c0.15-0.12,0.27-0.11,0.36-0.05l0.46,0.4c0.12,0.09,0.09,0.3-0.01,0.41
			c-1.01,1.01-2.3,1.49-3.65,1.5c-3.01,0.03-5.47-2.34-5.5-5.35C42.87,46.22,45.27,43.77,48.29,43.73z"/>
	</g>
</g>
</svg>
