<svg id="Layer_1" data-name="Layer 1" xmlns="http://www.w3.org/2000/svg" viewBox="0 0 391 172.07"><defs><style>.cls-1{fill:#ececec;}.cls-2{fill:#fbc39d;}.cls-3{fill:#f9ac7f;}.cls-4{fill:#184065;}.cls-5{fill:#fff;}.cls-6{fill:#113651;}.cls-7{fill:#dbdbdb;}.cls-8{fill:#04cba6;}.cls-9{fill:#ebf6fe;}.cls-10{fill:#f9bdc2;}</style></defs><title>Icons 2</title><path class="cls-1" d="M101,125.71l-24.4,28.6a9.25,9.25,0,0,0,.77,12.81h0a9.26,9.26,0,0,0,10.28,1.53c12.43-6,41-19.91,40.4-20.86-.43-.71-6.84-11.78-12-20.71A9.24,9.24,0,0,0,101,125.71Z"/><path class="cls-2" d="M145,152.76,89.41,170.89a9.69,9.69,0,0,1-12.22-6.21h0a9.69,9.69,0,0,1,6.21-12.23L139,134.32a9.7,9.7,0,0,1,12.23,6.21h0A9.7,9.7,0,0,1,145,152.76Z"/><path class="cls-1" d="M202.26,125.71l24.4,28.6a9.24,9.24,0,0,1-.78,12.81h0a9.24,9.24,0,0,1-10.27,1.53c-12.43-6-41-19.91-40.4-20.86.43-.71,6.84-11.78,12-20.71A9.24,9.24,0,0,1,202.26,125.71Z"/><path class="cls-2" d="M158.29,152.76l55.57,18.13a9.69,9.69,0,0,0,12.22-6.21h0a9.7,9.7,0,0,0-6.21-12.23L164.3,134.32a9.69,9.69,0,0,0-12.22,6.21h0A9.7,9.7,0,0,0,158.29,152.76Z"/><path class="cls-1" d="M189,130.2l-70.71-1.44v-9.1c0-14.85,15.1-28.69,29.94-28.69h11.15C172.55,91,189,104.91,189,118.1Z"/><path class="cls-2" d="M158.61,74.22H148.22a3.81,3.81,0,0,0-3.8,3.81V94.32a9,9,0,0,0,18,0V78A3.81,3.81,0,0,0,158.61,74.22Z"/><path class="cls-3" d="M144.42,91s.73,5.29,9,5.29,9-5.29,9-5.29Z"/><path class="cls-3" d="M128.06,48.34a7,7,0,1,0,6.73,7A6.87,6.87,0,0,0,128.06,48.34Z"/><path class="cls-3" d="M178.86,48.34a7,7,0,1,0,6.73,7A6.87,6.87,0,0,0,178.86,48.34Z"/><path class="cls-2" d="M151.35,92.74l0,.05c.7.06,1.4.1,2.11.1h0a24.47,24.47,0,0,0,6.21-.8l0,0c11-2.89,19.13-13.24,19.13-25.56V35.59c0-14.56-11.35-12.24-25.36-12.24h0c-14,0-25.35-2.32-25.35,12.24V66.48C128.06,80.31,138.31,91.65,151.35,92.74Z"/><path class="cls-4" d="M173.66,56.32v8.34h-9s-2.22-6-11.25-6-11.25,6-11.25,6h-9V56.32c0-3.28-3.08-4.36-5.11-4.72V66.48c0,13.83,10.25,25.17,23.29,26.26l0,.05c.7.06,1.4.1,2.11.1s1.42,0,2.12-.1l-.05-.05c13-1.09,23.29-12.43,23.29-26.26V51.6C176.74,52,173.66,53,173.66,56.32Z"/><path d="M165.12,48.34a1.78,1.78,0,1,1-1.78-1.85A1.82,1.82,0,0,1,165.12,48.34Z"/><rect x="159.83" y="42.46" width="7.55" height="2.96" rx="0.93"/><path class="cls-5" d="M161.67,75.3a.33.33,0,0,1-.3-.2c-.06-.17-1.58-4.08-8.48-4.08s-8.42,3.91-8.48,4.08a.31.31,0,0,1-.4.18.32.32,0,0,1-.19-.4c.07-.18,1.71-4.49,9.07-4.49s9,4.31,9.07,4.49a.31.31,0,0,1-.19.4Z"/><path class="cls-4" d="M155.48,87.9l.05,0c-.7,0-1.4.09-2.12.09S152,88,151.3,88l0,0c-13-1.1-23.29-12.43-23.29-26.27v4.85c0,13.83,10.25,25.17,23.29,26.26l0,.05c.7.06,1.4.1,2.11.1s1.42,0,2.12-.1l-.05-.05c13-1.09,23.29-12.43,23.29-26.26V61.63C178.77,75.47,168.52,86.8,155.48,87.9Z"/><path d="M144.26,48.34a1.78,1.78,0,1,1-1.78-1.85A1.81,1.81,0,0,1,144.26,48.34Z"/><rect x="138.98" y="42.46" width="7.55" height="2.96" rx="0.93"/><path class="cls-4" d="M172.07,13.21c-6.93-1-17.74-1.09-25.62,5.39a4.78,4.78,0,0,0-.51.49h-6.23c-6.44,0-11.65,4.55-11.65,10.16V64.19A2.19,2.19,0,0,0,130.21,62V39.43s.4-7.15,6.88-7.15h31.72c6.9,0,7.74,6.26,7.82,7.07V62a2.19,2.19,0,0,0,2.15,2.24V29.9l.08-8.8A7.9,7.9,0,0,0,172.07,13.21Z"/><path class="cls-3" d="M155.87,54.17h-6a2.24,2.24,0,0,0,0,4.47h6a2.24,2.24,0,0,0,0-4.47Z"/><rect class="cls-6" x="90.99" y="163.14" width="123.53" height="8.46" rx="4.23"/><rect class="cls-4" x="102.36" y="108.44" width="102.15" height="63.16" rx="9.17"/><path class="cls-7" d="M152.75,147.77a7.75,7.75,0,1,1,7.76-7.75A7.76,7.76,0,0,1,152.75,147.77Zm0-14.15a6.4,6.4,0,1,0,6.41,6.4A6.41,6.41,0,0,0,152.75,133.62Z"/><path class="cls-4" d="M253.87,173H59.31a1.37,1.37,0,0,1,0-2.74H253.87a1.37,1.37,0,0,1,0,2.74Z"/><path class="cls-4" d="M52.47,173H30.67a1.37,1.37,0,1,1,0-2.74h21.8a1.37,1.37,0,0,1,0,2.74Z"/><path class="cls-8" d="M283.12,173h-21.8a1.37,1.37,0,0,1,0-2.74h21.8a1.37,1.37,0,0,1,0,2.74Z"/><path class="cls-8" d="M295.29,173h-4.67a1.37,1.37,0,0,1,0-2.74h4.67a1.37,1.37,0,0,1,0,2.74Z"/><path class="cls-8" d="M22.81,173H15.4a1.37,1.37,0,1,1,0-2.74h7.41a1.37,1.37,0,0,1,0,2.74Z"/><path class="cls-8" d="M3.3,173H1.37a1.37,1.37,0,0,1,0-2.74H3.3a1.37,1.37,0,0,1,0,2.74Z"/><circle class="cls-8" cx="62.64" cy="130.2" r="4.39"/><circle class="cls-8" cx="289.21" cy="69.71" r="4.53"/><path class="cls-9" d="M318.71,46.71a.67.67,0,0,1-.48-.21L315.82,44H297.15a15.12,15.12,0,0,1,0-30.24H323.2a15.12,15.12,0,1,1,0,30.24h-2l-2,2.49a.67.67,0,0,1-.49.25ZM297.15,15.07a13.79,13.79,0,0,0,0,27.57h19a.66.66,0,0,1,.48.2L318.67,45l1.73-2.15a.69.69,0,0,1,.52-.24h2.28a13.79,13.79,0,1,0,0-27.57Z"/><path class="cls-1" d="M250.51,30.21H233a14.85,14.85,0,1,0,0,29.7h1.82l3.76,5.28L242,59.91h8.47a14.85,14.85,0,1,0,0-29.7Z"/><path class="cls-8" d="M100.34,8.85a1,1,0,0,1-.72-.3L94,2.89a1,1,0,0,1,0-1.46,1,1,0,0,1,1.45,0l5.66,5.66a1,1,0,0,1,0,1.46A1,1,0,0,1,100.34,8.85Z"/><path class="cls-8" d="M94.68,8.85a1,1,0,0,1-.72-.3,1,1,0,0,1,0-1.46l5.66-5.66a1,1,0,0,1,1.45,0,1,1,0,0,1,0,1.46L95.41,8.55A1,1,0,0,1,94.68,8.85Z"/><path class="cls-8" d="M325.48,25.22H295.74a1.51,1.51,0,1,1,0-3h29.74a1.51,1.51,0,0,1,0,3Z"/><path class="cls-8" d="M311.18,30.38H295.74a1.51,1.51,0,1,1,0-3h15.44a1.51,1.51,0,0,1,0,3Z"/><path class="cls-8" d="M319.75,35.53h-24a1.51,1.51,0,1,1,0-3h24a1.51,1.51,0,0,1,0,3Z"/><path class="cls-8" d="M302.08,104.46H283.45a8.28,8.28,0,1,0,0,16.55h18.63a8.28,8.28,0,1,0,0-16.55Z"/><polygon class="cls-8" points="288.26 120.53 286.02 123.56 284.12 120.53 288.26 120.53"/><path class="cls-5" d="M300.35,114.13h-9.66a1.4,1.4,0,0,1,0-2.79h9.66a1.4,1.4,0,1,1,0,2.79Z"/><path class="cls-5" d="M286.21,114.13h-1.69a1.4,1.4,0,0,1,0-2.79h1.69a1.4,1.4,0,0,1,0,2.79Z"/><path class="cls-1" d="M351.53,103.51H341.08a20.1,20.1,0,0,0-20.1,20.1h0a20.09,20.09,0,0,0,20,20.1h0c2.24,2.11,5.28,5,5.29,5h0l5.22-5h0a20.1,20.1,0,0,0,20.1-20.11h0A20.1,20.1,0,0,0,351.53,103.51Z"/><circle class="cls-1" cx="48.08" cy="96.47" r="17.12" transform="translate(-56.91 120.84) rotate(-76.58)"/><path class="cls-8" d="M54.89,102.42a5.81,5.81,0,0,0-5.81-5.81H47.42a5.81,5.81,0,0,0-5.82,5.81v1.66H54.89Z"/><path class="cls-8" d="M48.25,88.3a3.33,3.33,0,1,1-3.33,3.32A3.32,3.32,0,0,1,48.25,88.3Z"/><path class="cls-10" d="M235.36,38.92A5.94,5.94,0,0,1,240.6,42h12.07l2.84,2.55-3.69,3.12-1.7-1.7-1.7,1.7L246.71,46l-1.7,1.7H240.6a6,6,0,1,1-5.24-8.79Zm-2,4.25a1.71,1.71,0,1,0,1.7,1.71A1.71,1.71,0,0,0,233.38,43.17Z"/><path class="cls-10" d="M234.28,109.65A11.29,11.29,0,0,0,223,98.36h-.87a11.29,11.29,0,0,0-2.1,22.39l2.31,3.68,2.7-3.67A11.29,11.29,0,0,0,234.28,109.65Z"/><path class="cls-5" d="M222,111.53h1.07a.34.34,0,0,0,.34-.33l.66-7.47a.33.33,0,0,0-.33-.33h-2.41a.33.33,0,0,0-.33.33l.66,7.47A.34.34,0,0,0,222,111.53Z"/><path class="cls-5" d="M222.54,112.67a1.62,1.62,0,1,0,1.62,1.62A1.62,1.62,0,0,0,222.54,112.67Z"/><path class="cls-1" d="M256.52,151.63a1,1,0,0,1-.73-.3l-5.66-5.66a1,1,0,0,1,1.45-1.45l5.66,5.66a1,1,0,0,1,0,1.45A1,1,0,0,1,256.52,151.63Z"/><path class="cls-1" d="M250.86,151.63a1,1,0,0,1-.73-1.75l5.66-5.66a1,1,0,0,1,1.45,1.45l-5.66,5.66A1,1,0,0,1,250.86,151.63Z"/><circle class="cls-8" cx="102.45" cy="73.11" r="4.39"/><rect class="cls-8" x="299.84" y="170.44" width="92.47" height="2.64" rx="1.32"/><path class="cls-10" d="M354.59,121.54a2.12,2.12,0,0,0-1.88-2.07,4.13,4.13,0,0,0-.5,0h-.36v-2.69a10.11,10.11,0,0,0-.11-1.82,5.49,5.49,0,0,0-1.92-3.18,6.06,6.06,0,0,0-1.86-1,5.46,5.46,0,0,0-1.93-.25,5.52,5.52,0,0,0-3.1,1.09,6.26,6.26,0,0,0-1.29,1.33,5.49,5.49,0,0,0-.72,1.48,6.33,6.33,0,0,0-.26,2v.52h2.1v-.59a6.61,6.61,0,0,1,0-.77,4.31,4.31,0,0,1,.24-.87,6.06,6.06,0,0,1,.45-.78.86.86,0,0,1-.07.1l.16-.21-.09.11a5.35,5.35,0,0,1,.63-.63l-.11.09.21-.16-.1.07a5.08,5.08,0,0,1,.78-.45,5.44,5.44,0,0,1,.9-.25,4.92,4.92,0,0,1,.94,0,5.61,5.61,0,0,1,.89.25,4.65,4.65,0,0,1,.78.45l-.09-.07.21.16-.12-.08a4.69,4.69,0,0,1,.63.63.83.83,0,0,0-.08-.12l.16.21-.08-.09a4.32,4.32,0,0,1,.46.78,4.4,4.4,0,0,1,.24.86c0,.53,0,1.09,0,1.62v2.26h-1.69v.12h-8.58v0a2,2,0,0,0-1.24.9,3.83,3.83,0,0,0-.31,2.12v8.77a2.2,2.2,0,0,0,.56,1.54,2.12,2.12,0,0,0,1.59.67h12.2a2.71,2.71,0,0,0,.85-.1,2.13,2.13,0,0,0,1.46-2V121.6h0A.13.13,0,0,0,354.59,121.54ZM347,127.91v1.41a.79.79,0,1,1-1.57,0v-1.43a1.66,1.66,0,0,1-.67-.62,1.72,1.72,0,0,1,.18-2,1.7,1.7,0,0,1,1.83-.49,1.73,1.73,0,0,1,1.13,1.57h0v0a.08.08,0,0,1,0,0A1.79,1.79,0,0,1,347,127.91Z"/><circle class="cls-10" cx="74.5" cy="38.34" r="17.12" transform="translate(19.92 101.91) rotate(-76.58)"/><path class="cls-5" d="M80.46,41.94l-3.83,1.35-.71-1.59a.62.62,0,0,0-.37-.34.6.6,0,0,0-.49,0l-5.71,3.1a.62.62,0,0,0-.26.82.83.83,0,0,0,.08.12A20.14,20.14,0,0,0,74,49.58a.63.63,0,0,0,.33.09.62.62,0,0,0,.32-.09,19.19,19.19,0,0,0,6.6-6.75.61.61,0,0,0-.1-.74.61.61,0,0,0-.64-.15Zm-6.18,6.38a18.38,18.38,0,0,1-3.67-3.09l4.45-2.42.67,1.5a.62.62,0,0,0,.77.33l2.67-.94a18.29,18.29,0,0,1-4.89,4.62Zm0,0"/><path class="cls-5" d="M83.68,33.05a.64.64,0,0,0-.45-.19h0a2.39,2.39,0,0,1-1.74-.74,2.46,2.46,0,0,1-.67-1.81.59.59,0,0,0-.17-.45.64.64,0,0,0-.45-.19H68.36a.64.64,0,0,0-.45.19.59.59,0,0,0-.17.45,2.46,2.46,0,0,1-.67,1.81,2.39,2.39,0,0,1-1.74.74h0a.62.62,0,0,0-.45.19.6.6,0,0,0-.17.46,20.71,20.71,0,0,0,3.08,9.93.64.64,0,0,0,.52.29.67.67,0,0,0,.3-.08l7.61-4.14.83,2a.62.62,0,0,0,.78.35l4.28-1.48a.6.6,0,0,0,.37-.36,21.25,21.25,0,0,0,1.38-6.54.6.6,0,0,0-.17-.46Zm-2.26,6.29L78,40.53l-.87-2.12a.61.61,0,0,0-.87-.31l-7.7,4.18A19.46,19.46,0,0,1,66,34,3.55,3.55,0,0,0,68,33a3.72,3.72,0,0,0,1-2.07H79.6a3.72,3.72,0,0,0,1,2.07,3.55,3.55,0,0,0,2,1.07,20.2,20.2,0,0,1-1.16,5.3Zm0,0"/></svg>